<?xml version="1.0" encoding="utf-8"?>
<!-- Generator: Adobe Illustrator 24.0.0, SVG Export Plug-In . SVG Version: 6.00 Build 0)  -->
<svg version="1.1" id="Capa_1" xmlns="http://www.w3.org/2000/svg" xmlns:xlink="http://www.w3.org/1999/xlink" x="0px" y="0px"
	 viewBox="0 0 500 500" style="enable-background:new 0 0 500 500;" xml:space="preserve">
<style type="text/css">
	.st0{fill:#006064;}
</style>
<path class="st0" d="M75.74,381.12c-7.54,0-14.36,0.62-21.04-0.11c-31.4-3.41-54.17-27.63-54.36-59.48
	c-0.46-78.37-0.47-156.75-0.01-235.12c0.19-33.04,27.53-58.82,60.71-58.83c125.93-0.03,251.85-0.03,377.78,0.01
	c33.92,0.01,60.83,26.14,60.95,59.92c0.27,77.71,0.29,155.43,0.06,233.14c-0.1,34.79-26.43,60.64-61.51,60.71
	c-84.54,0.16-169.08,0.09-253.61-0.04c-4.78-0.01-8.14,1.3-11.54,4.73c-26.94,27.21-54.09,54.21-81.16,81.3
	c-3.17,3.17-6.23,6.54-11.37,4.46c-5.21-2.12-4.87-6.74-4.87-11.18c0-23.78-0.02-47.55-0.03-71.33
	C75.74,386.92,75.74,384.56,75.74,381.12z M250.31,188.9c-60.12,0-120.23,0-180.35,0c-13.44,0-20.88,5.63-20.79,15.71
	c0.09,10.08,7.44,15.53,20.97,15.53c120.01,0.01,240.02,0.01,360.03,0.01c1.98,0,3.97,0.06,5.94-0.11
	c8.56-0.75,14.99-7.51,14.92-15.61c-0.07-8.22-6.49-14.82-15.1-15.43c-2.41-0.17-4.84-0.1-7.26-0.1
	C369.22,188.9,309.77,188.9,250.31,188.9z M250.06,146.71c0,0.02,0,0.04,0,0.06c24.66,0,49.32,0,73.98,0
	c36.11-0.01,72.22,0.12,108.33-0.21c4.52-0.04,9.73-1.47,13.36-4.05c5.51-3.9,6.44-10.28,4.2-16.69
	c-2.32-6.65-8.41-10.04-17.57-10.04c-121.32,0-242.65,0-363.97,0.01c-1.76,0-3.53-0.02-5.28,0.16c-9.11,0.94-15.3,9.32-13.59,18.3
	c1.56,8.16,7.4,12.44,17.56,12.44C128.07,146.73,189.07,146.71,250.06,146.71z M250.19,262.33c0-0.01,0-0.02,0-0.03
	c-59.23,0-118.46,0-177.69,0c-3.08,0-6.18-0.1-9.24,0.13c-7.9,0.6-13.81,6.89-14.09,14.79c-0.27,7.72,5.43,14.63,13.17,15.71
	c2.6,0.36,5.27,0.25,7.91,0.25c118.68,0.01,237.35,0.01,356.03,0.01c3.52,0,7.29,0.69,10.5-0.33c3.98-1.26,8.25-3.27,11.02-6.23
	c4.01-4.29,4.3-10.11,1.63-15.46c-3.15-6.31-8.47-8.91-15.62-8.9C372.61,262.38,311.4,262.33,250.19,262.33z"/>
</svg>
