<?xml version="1.0" encoding="utf-8"?>
<!-- Generator: Adobe Illustrator 24.0.0, SVG Export Plug-In . SVG Version: 6.00 Build 0)  -->
<svg version="1.1" xmlns="http://www.w3.org/2000/svg" xmlns:xlink="http://www.w3.org/1999/xlink" x="0px" y="0px"
	 viewBox="0 0 500 500" style="enable-background:new 0 0 500 500;" xml:space="preserve">
<style type="text/css">
	.st0{display:none;}
	.st1{display:inline;fill:#006064;}
	.st2{fill:#006064;}
</style>
<g id="Capa_1" class="st0">
	<path class="st1" d="M450,50H50C22.5,50,0.25,72.5,0.25,100L0,400c0,27.5,22.5,50,50,50h400c27.5,0,50-22.5,50-50V100
		C500,72.5,477.5,50,450,50z M450,150L250,275L50,150v-50l200,125l200-125V150z"/>
</g>
<g id="Capa_2">
	<path class="st2" d="M249.96,500c-58.47,0-116.94,0.01-175.4-0.01c-13.01,0-17.96-4.96-17.97-18.07c-0.02-83-0.02-166.01,0-249.01
		c0-12.67,5.42-18.01,18.28-18.12c9.13-0.08,18.27-0.31,27.38,0.09c5.86,0.26,7.92-1.55,7.83-7.65
		c-0.33-21.39-0.37-42.79-0.08-64.18c0.59-43.61,16.19-80.66,49.52-109.4c78.88-68.03,202.16-27.69,226.29,73.9
		c2.85,12,4.08,24.18,4.2,36.45c0.2,20.54,0.44,41.08-0.15,61.6c-0.23,7.87,2.42,9.79,9.7,9.31c8.8-0.58,17.68-0.25,26.51-0.11
		c11.73,0.18,17.33,5.76,17.33,17.33c0.03,83.57,0.03,167.15,0,250.72c0,11.9-5.3,17.12-17.19,17.12
		C367.46,500.01,308.71,500,249.96,500z M251.15,214.78c26.22,0,52.44-0.09,78.66,0.08c5.12,0.03,7.77-0.85,7.67-6.93
		c-0.4-24.22,0.47-48.48-0.6-72.66c-1.89-42.47-38.19-77.8-80.53-79.58c-44.4-1.87-82.96,29.03-88.96,71.99
		c-3.79,27.2-0.82,54.65-1.65,81.97c-0.18,6.01,4.02,5.1,7.6,5.11C199.28,214.79,225.21,214.78,251.15,214.78z"/>
</g>
</svg>
