<?xml version="1.0" encoding="utf-8"?>
<!-- Generator: Adobe Illustrator 24.0.0, SVG Export Plug-In . SVG Version: 6.00 Build 0)  -->
<svg version="1.1" xmlns="http://www.w3.org/2000/svg" xmlns:xlink="http://www.w3.org/1999/xlink" x="0px" y="0px"
	 viewBox="0 0 500 500" style="enable-background:new 0 0 500 500;" xml:space="preserve">
<style type="text/css">
	.st0{display:none;}
	.st1{display:inline;fill:#006064;}
	.st2{display:inline;}
	.st3{fill:#FFFFFF;}
	.st4{fill:#005662;}
	.st5{display:inline;opacity:0.25;}
	.st6{display:inline;fill:#FFFFFF;}
	.st7{display:inline;fill:#005662;}
	.st8{display:inline;fill:none;stroke:#BB1C24;stroke-width:8;stroke-linecap:round;stroke-miterlimit:10;}
	.st9{display:inline;fill:none;stroke:#BB1C24;stroke-miterlimit:10;}
	.st10{fill:#006064;}
</style>
<g id="Capa_1" class="st0">
	<path class="st1" d="M75.74,381.12c-7.54,0-14.36,0.62-21.04-0.11c-31.4-3.41-54.17-27.63-54.36-59.48
		c-0.46-78.37-0.47-156.75-0.01-235.12c0.19-33.04,27.53-58.82,60.71-58.83c125.93-0.03,251.85-0.03,377.78,0.01
		c33.92,0.01,60.83,26.14,60.95,59.92c0.27,77.71,0.29,155.43,0.06,233.14c-0.1,34.79-26.43,60.64-61.51,60.71
		c-84.54,0.16-169.08,0.09-253.61-0.04c-4.78-0.01-8.14,1.3-11.54,4.73c-26.94,27.21-54.09,54.21-81.16,81.3
		c-3.17,3.17-6.23,6.54-11.37,4.46c-5.21-2.12-4.87-6.74-4.87-11.18c0-23.78-0.02-47.55-0.03-71.33
		C75.74,386.92,75.74,384.56,75.74,381.12z M250.31,188.9c-60.12,0-120.23,0-180.35,0c-13.44,0-20.88,5.63-20.79,15.71
		c0.09,10.08,7.44,15.53,20.97,15.53c120.01,0.01,240.02,0.01,360.03,0.01c1.98,0,3.97,0.06,5.94-0.11
		c8.56-0.75,14.99-7.51,14.92-15.61c-0.07-8.22-6.49-14.82-15.1-15.43c-2.41-0.17-4.84-0.1-7.26-0.1
		C369.22,188.9,309.77,188.9,250.31,188.9z M250.06,146.71c0,0.02,0,0.04,0,0.06c24.66,0,49.32,0,73.98,0
		c36.11-0.01,72.22,0.12,108.33-0.21c4.52-0.04,9.73-1.47,13.36-4.05c5.51-3.9,6.44-10.28,4.2-16.69
		c-2.32-6.65-8.41-10.04-17.57-10.04c-121.32,0-242.65,0-363.97,0.01c-1.76,0-3.53-0.02-5.28,0.16c-9.11,0.94-15.3,9.32-13.59,18.3
		c1.56,8.16,7.4,12.44,17.56,12.44C128.07,146.73,189.07,146.71,250.06,146.71z M250.19,262.33c0-0.01,0-0.02,0-0.03
		c-59.23,0-118.46,0-177.69,0c-3.08,0-6.18-0.1-9.24,0.13c-7.9,0.6-13.81,6.89-14.09,14.79c-0.27,7.72,5.43,14.63,13.17,15.71
		c2.6,0.36,5.27,0.25,7.91,0.25c118.68,0.01,237.35,0.01,356.03,0.01c3.52,0,7.29,0.69,10.5-0.33c3.98-1.26,8.25-3.27,11.02-6.23
		c4.01-4.29,4.3-10.11,1.63-15.46c-3.15-6.31-8.47-8.91-15.62-8.9C372.61,262.38,311.4,262.33,250.19,262.33z"/>
</g>
<g id="Capa_2" class="st0">
	<g class="st2">
		<path class="st3" d="M299.1,49.1c0,27.11-21.98,49.09-49.1,49.09c-27.11,0-49.09-21.98-49.09-49.09C200.9,21.98,222.89,0,250,0
			C277.11,0,299.1,21.98,299.1,49.1z"/>
		<path class="st3" d="M299.1,250c0,27.12-21.98,49.1-49.1,49.1c-27.11,0-49.09-21.98-49.09-49.1c0-27.11,21.98-49.09,49.09-49.09
			C277.11,200.91,299.1,222.89,299.1,250z"/>
		<path class="st3" d="M299.1,450.91c0,27.12-21.98,49.09-49.1,49.09c-27.11,0-49.09-21.98-49.09-49.09
			c0-27.11,21.98-49.09,49.09-49.09C277.11,401.81,299.1,423.79,299.1,450.91z"/>
	</g>
</g>
<g id="Capa_3" class="st0">
	<g class="st2">
		<g>
			<path class="st4" d="M207.78,312.39c-0.01-20.12-0.54-40.25,0.13-60.35c0.88-26.62,18.02-44.12,41.98-44.06
				c23.93,0.06,41.45,17.5,41.95,44.26c0.77,41.1,0.87,82.23-0.09,123.32c-0.61,25.8-20.11,43.88-43.42,43.01
				c-22.68-0.85-39.47-18.18-40.39-43.22C207.18,354.4,207.79,333.38,207.78,312.39z"/>
			<path class="st4" d="M249.35,165.46c-22.63-0.25-41.33-19.15-41.46-41.89c-0.14-23.87,19.75-43.09,43.61-42.14
				c22.74,0.9,41.01,20.33,40.39,42.94C291.27,146.71,271.61,165.71,249.35,165.46z"/>
		</g>
		<path class="st4" d="M250,500C112.15,500,0,387.85,0,250S112.15,0,250,0s250,112.15,250,250S387.85,500,250,500z M250,41.14
			C134.83,41.14,41.14,134.83,41.14,250S134.83,458.86,250,458.86S458.86,365.17,458.86,250S365.17,41.14,250,41.14z"/>
	</g>
</g>
<g id="Capa_4" class="st0">
	<g class="st5">
		<path class="st4" d="M230.13,486.88c-68.74-0.01-137.49,0.01-206.23-0.02c-16.74-0.01-22.01-6.47-19.27-22.92
			c13.75-82.48,27.45-164.96,41.13-247.45c2.16-13.01,6.58-16.94,19.95-16.94c138.37-0.02,276.73-0.02,415.1-0.01
			c15.56,0,21.14,6.79,18.59,22.05c-13.76,82.49-27.49,164.99-41.19,247.49c-2.34,14.09-6.57,17.8-20.98,17.8
			C368.21,486.89,299.17,486.88,230.13,486.88z M261,456.47c62.36-1.55,111-51.97,109.47-113.48
			c-1.52-61.22-52.15-108.89-114.23-107.56c-59.81,1.28-108.44,52.79-106.87,113.17C150.94,408.62,201.97,457.93,261,456.47z"/>
		<path class="st4" d="M114.8,13.12c93.76,0,186.47,0,279.97,0c0,58.86,0,117.42,0,176.5c-15.68,0-31.03,0-47.66,0
			c0-3.71,0-7.1,0-10.49c0-37.75,0.01-75.51,0.01-113.26c0-2.63,0.43-5.45-0.37-7.83c-0.6-1.78-2.95-4.24-4.38-4.15
			c-1.59,0.1-3.65,2.51-4.34,4.35c-0.78,2.06-0.31,4.61-0.32,6.95c-0.03,38.05-0.04,76.09-0.06,114.14c0,3.18,0,6.35,0,10.17
			c-19.33,0-37.92,0-57.87,0c0-3.38,0-6.78,0-10.18c0-38.05,0.01-76.09,0-114.14c0-2.05,0.51-4.34-0.24-6.08
			c-0.91-2.11-2.91-3.75-4.43-5.6c-1.56,1.8-3.61,3.38-4.54,5.47c-0.76,1.72-0.21,4.03-0.21,6.08
			c-0.02,38.34-0.03,76.68-0.05,115.01c0,2.89,0,5.77,0,9.38c-9.5,0-18.41,0-28.42,0c-0.16-2.83-0.48-5.89-0.48-8.96
			c-0.03-38.34,0.12-76.68-0.2-115.01c-0.03-3.98-2.92-11.41-4.19-11.35c-7.49,0.37-5.11,6.99-5.13,11.42
			c-0.17,38.04-0.1,76.09-0.1,114.14c0,3.14,0,6.28,0,9.92c-9.89,0-18.79,0-28.84,0c0-3.54,0-6.65,0-9.76
			c0.01-38.63,0.01-77.26,0.01-115.89c0-1.75,0.47-3.82-0.29-5.18c-1.11-2.01-3.13-3.52-4.76-5.24c-1.51,1.87-3.49,3.55-4.39,5.68
			c-0.74,1.75-0.22,4.03-0.22,6.08c-0.01,38.05-0.01,76.09-0.02,114.14c0,3.17,0,6.33,0,10.09c-9.69,0-18.58,0-28.31,0
			c-0.17-3.25-0.46-6.35-0.46-9.46c-0.03-37.46-0.02-74.92-0.01-112.38c0-1.46,0.45-3.11-0.07-4.35c-1.4-3.35-3.21-6.53-4.86-9.78
			c-1.6,3.26-4.56,6.51-4.59,9.79c-0.33,38.63-0.21,77.26-0.22,115.89c0,3.18,0,6.37,0,10.23c-13.57,0-26.51,0-39.95,0
			C114.8,130.71,114.8,72.35,114.8,13.12z"/>
		<path class="st4" d="M0,424.12c0-40.95,0-81.89,0-122.84c0-43.87-0.01-87.73,0.01-131.6c0-13.36,3.01-17.35,15.9-19.48
			c5.5-0.91,6.43-4.04,6.41-8.57c-0.04-9.07-0.23-18.15,0.1-27.21c0.49-13.31,10.04-23.57,23.3-23.93
			c19.28-0.53,38.58-0.14,58.66-0.14c0,32.96,0,65.55,0,99.79c-8.31,0-16.94,0-25.56,0c-4.97,0-9.95-0.07-14.92,0.02
			c-15.54,0.28-24.43,7.82-27.01,23.25c-8.34,49.89-16.57,99.81-24.87,149.71c-3.4,20.41-6.89,40.81-10.34,61.21
			C1.12,424.27,0.56,424.2,0,424.12z"/>
		<path class="st4" d="M454.35,189.66c-16.96,0-32.58,0-48.79,0c0-13.12,0-25.76,0-39.36c12.21,0,24.09-0.51,35.9,0.19
			c7.55,0.45,12.2,5.82,12.75,13.3C454.83,172.12,454.35,180.54,454.35,189.66z"/>
		<path class="st4" d="M234.01,320c0-8.65-0.12-16.18,0.03-23.7c0.24-11.97,4.73-16.44,16.46-16.55c6.72-0.06,13.44-0.08,20.16,0.03
			c10.08,0.16,14.82,4.88,15.17,15.09c0.14,4.09,0.03,8.18,0.03,12.27c0,3.78,0,7.55,0,12.84c8.24,0,15.98-0.08,23.72,0.02
			c11.77,0.16,16.48,4.78,16.7,16.44c0.13,7.01,0.27,14.04-0.13,21.03c-0.52,9.24-5.26,13.69-14.57,13.95
			c-8.12,0.22-16.26,0.05-25.71,0.05c0,8.36,0.03,15.81-0.01,23.27c-0.07,12.36-4.6,17.03-16.82,17.2
			c-6.72,0.1-13.44,0.18-20.16-0.04c-9.68-0.33-14.32-4.96-14.86-14.69c-0.23-4.08-0.04-8.18-0.04-12.27c0-4.05,0-8.11,0-13.41
			c-8.53,0-16.32,0.08-24.11-0.02c-11.41-0.15-15.88-4.61-15.98-15.92c-0.07-7.3-0.21-14.62,0.14-21.91
			c0.42-8.78,5.02-13.3,13.86-13.61C216.04,319.78,224.2,320,234.01,320z"/>
	</g>
</g>
<g id="Capa_5" class="st0">
	<path class="st6" d="M478.68,342.03H21.32C9.55,342.03,0,332.49,0,320.71V179.29c0-11.78,9.55-21.32,21.32-21.32h457.36
		c11.78,0,21.32,9.55,21.32,21.32v141.42C500,332.49,490.45,342.03,478.68,342.03z"/>
	<path class="st7" d="M191.73,292.38v-31.78h158.92v-21.19H191.73v-31.78L149.35,250L191.73,292.38z"/>
</g>
<g id="Capa_6" class="st0">
	<path class="st7" d="M478.68,342.03H21.32C9.55,342.03,0,332.49,0,320.71V179.29c0-11.78,9.55-21.32,21.32-21.32h457.36
		c11.78,0,21.32,9.55,21.32,21.32v141.42C500,332.49,490.45,342.03,478.68,342.03z"/>
	<path class="st6" d="M191.73,292.38v-31.78h158.92v-21.19H191.73v-31.78L149.35,250L191.73,292.38z"/>
</g>
<g id="Capa_7" class="st0">
	<path class="st6" d="M446.6,500H53.4C23.91,500,0,476.09,0,446.6V53.4C0,23.91,23.91,0,53.4,0H446.6C476.09,0,500,23.91,500,53.4
		V446.6C500,476.09,476.09,500,446.6,500z"/>
	<g class="st2">
		<path class="st4" d="M305.62,207.75c0,13.94,0.38,27.9-0.08,41.82c-1.02,31.58-24.66,55.22-54.95,55.43
			c-31.08,0.22-55.33-23.66-55.94-56.04c-0.52-27.87-0.64-55.78,0.05-83.64c0.72-29.1,21.22-50.96,49.54-54.38
			c25.56-3.09,50.57,13.25,58.84,38.22c2.16,6.51,2.46,13.17,2.53,19.86c0.12,12.91,0.04,25.82,0.04,38.73
			C305.65,207.75,305.64,207.75,305.62,207.75z"/>
		<path class="st4" d="M148.69,266.12c0.02-0.31-0.1-2.91,0.32-5.42c0.58-3.5,3.04-5.21,6.48-5.52c3.38-0.3,6.4,0.79,7.63,3.99
			c1.08,2.82,1.31,5.98,1.72,9.02c5.91,44.18,38.67,73.34,83.17,74c45.66,0.67,79.87-27.53,86.9-71.71c0.4-2.54,0.45-5.14,0.72-7.71
			c0.52-4.83,3.26-7.68,8.07-7.6c5.95,0.1,7.85,4.12,7.61,9.43c-0.19,4.12-0.2,8.31-0.98,12.33c-7.7,39.66-31.08,65.39-69.59,77.2
			c-17.73,5.44-17.82,5.15-18.64,22.61c-0.53,11.28-2.77,12.92-14.17,12.65c-7.25-0.17-11.64-3.88-10.42-10.25
			c3.54-18.49-7.15-22.38-21.96-26.77C176.32,340.78,150.37,306.83,148.69,266.12z"/>
	</g>
</g>
<g id="Capa_8" class="st0">
	<path class="st7" d="M446.6,500H53.4C23.91,500,0,476.09,0,446.6V53.4C0,23.91,23.91,0,53.4,0H446.6C476.09,0,500,23.91,500,53.4
		V446.6C500,476.09,476.09,500,446.6,500z"/>
	<g class="st2">
		<path class="st3" d="M211.04,346.63c-20.15,0-40.31,0.18-60.46-0.04c-29.79-0.33-43.72-14.27-43.8-43.7
			c-0.09-35.14,0.94-70.32-0.34-105.41c-0.95-25.98,17.49-44.81,44.16-44.28c41.84,0.83,83.72,0.71,125.57,0.02
			c22.69-0.37,44.12,14.79,43.18,43.49c-1.16,35.62-1.13,71.34,0.02,106.96c0.78,24.21-15.21,44.06-43.22,43.11
			C254.47,346.03,232.75,346.63,211.04,346.63z"/>
		<path class="st3" d="M393.6,251.97c0,18.6,0.02,37.19-0.02,55.79c-0.01,3.61-0.05,7.24-0.4,10.82c-0.43,4.44-2.54,7.83-7.12,9.11
			c-4.4,1.23-8.15,0.03-11.17-3.35c-1.37-1.54-2.67-3.16-3.9-4.81c-14.16-19.07-28.4-38.08-42.41-57.26
			c-7.5-10.27-7.62-13.71-0.5-23.48c14.29-19.61,28.87-39.02,43.33-58.51c0.31-0.41,0.64-0.81,0.95-1.22
			c3.55-4.8,7.58-8.85,14.23-6.36c5.75,2.16,6.87,7.23,6.93,12.65c0.08,6.71,0.08,13.43,0.08,20.14
			C393.61,220.97,393.6,236.47,393.6,251.97z"/>
	</g>
	<line class="st8" x1="492" y1="7" x2="8.5" y2="495.5"/>
</g>
<g id="Capa_10" class="st0">
	<path class="st7" d="M446.6,500H53.4C23.91,500,0,476.09,0,446.6V53.4C0,23.91,23.91,0,53.4,0H446.6C476.09,0,500,23.91,500,53.4
		V446.6C500,476.09,476.09,500,446.6,500z"/>
	<g class="st2">
		<path class="st3" d="M211.04,346.63c-20.15,0-40.31,0.18-60.46-0.04c-29.79-0.33-43.72-14.27-43.8-43.7
			c-0.09-35.14,0.94-70.32-0.34-105.41c-0.95-25.98,17.49-44.81,44.16-44.28c41.84,0.83,83.72,0.71,125.57,0.02
			c22.69-0.37,44.12,14.79,43.18,43.49c-1.16,35.62-1.13,71.34,0.02,106.96c0.78,24.21-15.21,44.06-43.22,43.11
			C254.47,346.03,232.75,346.63,211.04,346.63z"/>
		<path class="st3" d="M393.6,251.97c0,18.6,0.02,37.19-0.02,55.79c-0.01,3.61-0.05,7.24-0.4,10.82c-0.43,4.44-2.54,7.83-7.12,9.11
			c-4.4,1.23-8.15,0.03-11.17-3.35c-1.37-1.54-2.67-3.16-3.9-4.81c-14.16-19.07-28.4-38.08-42.41-57.26
			c-7.5-10.27-7.62-13.71-0.5-23.48c14.29-19.61,28.87-39.02,43.33-58.51c0.31-0.41,0.64-0.81,0.95-1.22
			c3.55-4.8,7.58-8.85,14.23-6.36c5.75,2.16,6.87,7.23,6.93,12.65c0.08,6.71,0.08,13.43,0.08,20.14
			C393.61,220.97,393.6,236.47,393.6,251.97z"/>
	</g>
</g>
<g id="Capa_9" class="st0">
	<path class="st7" d="M-1355.28,246.56c0-53.36,0.36-106.73-0.12-160.09c-0.37-40.8,27.97-74.72,64.9-83.57
		c7.52-1.8,15.07-2.14,22.68-2.15c105.2-0.03,210.41,0.64,315.61-0.34c41.1-0.38,84.76,29.65,87.75,81.38
		c0.23,4.05,0.4,8.12,0.4,12.18c0.02,101.65-0.01,203.29,0.04,304.94c0.01,21.35-4.03,41.44-17.42,58.74
		c-18.45,23.83-43.17,34.38-72.95,34.36c-103.68-0.06-207.36-0.01-311.04-0.05c-5.07,0-10.17-0.29-15.19-0.9
		c-43.86-5.39-75.14-42.82-74.76-84.4c0.38-42.18,0.06-84.37,0.05-126.55c0-11.18,0-22.36,0-33.54
		C-1355.3,246.56-1355.29,246.56-1355.28,246.56z M-1148.42,340.87c21.33,0,42.68-0.58,63.99,0.14
		c27.53,0.94,43.25-18.57,42.48-42.37c-1.13-35.01-1.16-70.11-0.02-105.12c0.92-28.2-20.14-43.11-42.44-42.74
		c-41.13,0.68-82.29,0.79-123.41-0.02c-26.22-0.52-44.34,17.99-43.4,43.52c1.26,34.49,0.24,69.06,0.34,103.6
		c0.08,28.92,13.77,42.62,43.05,42.95C-1188.04,341.05-1168.22,340.88-1148.42,340.87z M-969,247.84c0-15.23,0.01-30.46,0-45.69
		c0-6.6,0-13.2-0.08-19.8c-0.06-5.33-1.16-10.31-6.81-12.43c-6.54-2.45-10.49,1.54-13.98,6.25c-0.3,0.41-0.63,0.8-0.93,1.2
		c-14.21,19.16-28.54,38.23-42.59,57.51c-7,9.61-6.88,12.99,0.49,23.08c13.77,18.85,27.77,37.53,41.68,56.27
		c1.21,1.63,2.48,3.22,3.83,4.73c2.97,3.32,6.65,4.5,10.98,3.29c4.5-1.26,6.57-4.58,7-8.95c0.34-3.53,0.39-7.09,0.4-10.64
		C-968.99,284.39-969,266.11-969,247.84z"/>
	<path class="st6" d="M-1148.42,340.87c-19.81,0-39.62,0.18-59.42-0.04c-29.27-0.32-42.97-14.03-43.05-42.95
		c-0.09-34.54,0.92-69.11-0.34-103.6c-0.93-25.53,17.19-44.04,43.4-43.52c41.12,0.81,82.28,0.7,123.41,0.02
		c22.3-0.37,43.36,14.54,42.44,42.74c-1.14,35.01-1.11,70.11,0.02,105.12c0.77,23.79-14.95,43.3-42.48,42.37
		C-1105.73,340.28-1127.09,340.87-1148.42,340.87z"/>
	<path class="st6" d="M-969,247.84c0,18.28,0.02,36.55-0.02,54.83c-0.01,3.55-0.05,7.11-0.4,10.64c-0.43,4.37-2.5,7.7-7,8.95
		c-4.33,1.21-8.01,0.03-10.98-3.29c-1.35-1.51-2.62-3.1-3.83-4.73c-13.92-18.74-27.91-37.43-41.68-56.27
		c-7.37-10.09-7.49-13.47-0.49-23.08c14.05-19.28,28.37-38.35,42.59-57.51c0.3-0.41,0.63-0.8,0.93-1.2
		c3.49-4.71,7.45-8.7,13.98-6.25c5.66,2.12,6.75,7.1,6.81,12.43c0.08,6.6,0.08,13.2,0.08,19.8C-968.99,217.37-969,232.61-969,247.84
		z"/>
	<line class="st9" x1="-897.34" y1="4.52" x2="-1322.61" y2="465.98"/>
	<line class="st8" x1="492" y1="7" x2="8.5" y2="495.5"/>
</g>
<g id="Capa_11">
	<g>
		<circle class="st10" cx="250" cy="250" r="250"/>
		<path class="st3" d="M127.62,247.59c1.09-4.04,2.64-7.79,5.92-10.65c3.89-3.41,8.48-4.47,13.48-4.47
			c28.68,0.02,57.36,0.01,86.04,0.01c25.33,0,50.67,0,76,0c0.94,0,1.88,0,3.45,0c-1-1.06-1.6-1.73-2.23-2.36
			c-18.02-18.03-36.03-36.07-54.08-54.08c-5.42-5.41-7.59-11.65-5.2-19.13c3.54-11.07,17.93-15.43,27.01-8.18
			c1.06,0.84,2.08,1.74,3.04,2.69c28.34,28.33,56.67,56.67,85.02,84.99c5.4,5.39,7.89,11.64,5.24,19.06
			c-0.98,2.75-2.75,5.46-4.81,7.54c-28.59,28.76-57.26,57.43-85.98,86.06c-9.26,9.23-23.17,7.1-28.8-4.25
			c-3.36-6.78-1.77-14.61,4.33-20.71c18.01-18.04,36.04-36.06,54.08-54.08c0.66-0.66,1.45-1.19,2.17-1.79
			c-0.11-0.25-0.22-0.5-0.32-0.75c-0.98,0-1.96,0-2.94,0c-53.93,0-107.87-0.02-161.8,0.02c-6.5,0-12.23-1.67-16.05-7.19
			c-1.63-2.35-2.41-5.28-3.58-7.95C127.62,250.78,127.62,249.19,127.62,247.59z"/>
	</g>
</g>
</svg>
