<?xml version="1.0" encoding="utf-8"?>
<!-- Generator: Adobe Illustrator 24.0.0, SVG Export Plug-In . SVG Version: 6.00 Build 0)  -->
<svg version="1.1" xmlns="http://www.w3.org/2000/svg" xmlns:xlink="http://www.w3.org/1999/xlink" x="0px" y="0px"
	 viewBox="0 0 500 500" style="enable-background:new 0 0 500 500;" xml:space="preserve">
<style type="text/css">
	.st0{display:none;}
	.st1{display:inline;fill:#006064;}
	.st2{display:inline;}
	.st3{fill:#2693A7;}
	.st4{clip-path:url(#SVGID_2_);fill:#80ABB7;}
	.st5{clip-path:url(#SVGID_2_);fill:#008080;}
	.st6{clip-path:url(#SVGID_2_);fill:#006064;}
	.st7{clip-path:url(#SVGID_2_);fill:#2693A7;}
	.st8{fill:#006064;}
	.st9{fill:#FFFFFF;}
	.st10{fill:#005662;}
	.st11{fill:#C0C0C0;}
</style>
<g id="Capa_1" class="st0">
	<path class="st1" d="M450,50H50C22.5,50,0.25,72.5,0.25,100L0,400c0,27.5,22.5,50,50,50h400c27.5,0,50-22.5,50-50V100
		C500,72.5,477.5,50,450,50z M450,150L250,275L50,150v-50l200,125l200-125V150z"/>
</g>
<g id="Capa_2" class="st0">
	<path class="st1" d="M249.96,500c-58.47,0-116.94,0.01-175.4-0.01c-13.01,0-17.96-4.96-17.97-18.07c-0.02-83-0.02-166.01,0-249.01
		c0-12.67,5.42-18.01,18.28-18.12c9.13-0.08,18.27-0.31,27.38,0.09c5.86,0.26,7.92-1.55,7.83-7.65
		c-0.33-21.39-0.37-42.79-0.08-64.18c0.59-43.61,16.19-80.66,49.52-109.4c78.88-68.03,202.16-27.69,226.29,73.9
		c2.85,12,4.08,24.18,4.2,36.45c0.2,20.54,0.44,41.08-0.15,61.6c-0.23,7.87,2.42,9.79,9.7,9.31c8.8-0.58,17.68-0.25,26.51-0.11
		c11.73,0.18,17.33,5.76,17.33,17.33c0.03,83.57,0.03,167.15,0,250.72c0,11.9-5.3,17.12-17.19,17.12
		C367.46,500.01,308.71,500,249.96,500z M251.15,214.78c26.22,0,52.44-0.09,78.66,0.08c5.12,0.03,7.77-0.85,7.67-6.93
		c-0.4-24.22,0.47-48.48-0.6-72.66c-1.89-42.47-38.19-77.8-80.53-79.58c-44.4-1.87-82.96,29.03-88.96,71.99
		c-3.79,27.2-0.82,54.65-1.65,81.97c-0.18,6.01,4.02,5.1,7.6,5.11C199.28,214.79,225.21,214.78,251.15,214.78z"/>
</g>
<g id="Capa_3" class="st0">
	<g class="st2">
		<path class="st3" d="M179.33,263.24c0,27.23-22.07,49.3-49.3,49.3c-11.86,0-22.74-4.19-31.25-11.17
			c-3.17,1.81-6.34,3.62-9.51,5.43c-3.31,1.91-6.62,3.83-9.93,5.74c0.04-41.77,0.08-83.54,0.12-125.31c6.51,0,13.02,0,19.53,0
			c-0.07,12.63-0.14,25.25-0.22,37.88c8.51-6.98,19.39-11.17,31.25-11.17C157.26,213.94,179.33,236.01,179.33,263.24z
			 M159.67,263.24c0-16.37-13.27-29.64-29.63-29.64c-16.37,0-29.64,13.27-29.64,29.64c0,16.37,13.27,29.63,29.64,29.63
			S159.67,279.61,159.67,263.24z"/>
		<path class="st3" d="M279.09,268.02c-1.91,20.22-16.27,37.97-37.09,43.19c-26.41,6.63-53.19-9.41-59.81-35.82
			c-6.63-26.41,9.41-53.19,35.82-59.82c14.61-3.67,28.18,1.2,30.14,1.98c11.47,4.54,18.16,12.19,20.94,15.78
			c-1.48,1.47-2.95,2.95-4.43,4.42L210.86,286c7.04,5.96,16.74,8.56,26.37,6.14c9.98-2.5,17.49-9.79,20.71-18.81L279.09,268.02z
			 M199.86,267.55l37.7-33.8c-4.96-1.51-10.38-1.74-15.78-0.39C206.49,237.21,196.99,252.27,199.86,267.55z"/>
		<path class="st3" d="M73.05,254.89H0v-47.8c0-10.81,8.76-19.57,19.57-19.57h53.75V208H25.57c-2.79,0-5.04,2.26-5.04,5.04v22.37
			c0,2.79,2.26,5.04,5.04,5.04h47.48V254.89z M73.57,292.18v20.47H19.57C8.76,312.65,0,303.89,0,293.09v-41.26h73.05v9.1H25.57
			c-2.79,0-5.04,2.26-5.04,5.04v21.18c0,2.79,2.26,5.04,5.04,5.04H73.57z"/>
		<g>
			<defs>
				<path id="SVGID_1_" d="M379.72,213.66v13.77c-17.86,1.93-31.55,16.84-31.55,35.25s13.69,33.33,31.55,35.25v13.78
					c-25.34-2-45.28-23.18-45.28-49.03S354.38,215.65,379.72,213.66z M432.83,262.68c0,25.85-19.94,47.03-45.28,49.03v-13.78
					c17.86-1.92,31.55-16.84,31.55-35.25s-13.69-33.33-31.55-35.25v-13.77C412.89,215.65,432.83,236.83,432.83,262.68z"/>
			</defs>
			<clipPath id="SVGID_2_">
				<use xlink:href="#SVGID_1_"  style="overflow:visible;"/>
			</clipPath>
			<path class="st4" d="M379.72,213.66v13.77c-17.86,1.93-31.55,16.84-31.55,35.25s13.69,33.33,31.55,35.25v13.78
				c-25.34-2-45.28-23.18-45.28-49.03S354.38,215.65,379.72,213.66z M432.83,262.68c0,25.85-19.94,47.03-45.28,49.03v-13.78
				c17.86-1.92,31.55-16.84,31.55-35.25s-13.69-33.33-31.55-35.25v-13.77C412.89,215.65,432.83,236.83,432.83,262.68z"/>
			<path class="st5" d="M317.14,208.77c14.46-7.45,49.42,9.06,49.24,34.41c-0.17,23.61-30.74,40.56-45.68,34.41
				C301.11,269.52,299.31,217.96,317.14,208.77z"/>
			<path class="st5" d="M399.88,271.06c14.46-7.45,49.42,9.06,49.24,34.41c-0.17,23.61-32.76,40.56-47.7,34.41
				C381.82,331.81,382.05,280.25,399.88,271.06z"/>
			<path class="st6" d="M399.88,186.99c14.46-7.45,49.42,9.06,49.24,34.41c-0.17,23.61-30.47,39.84-45.68,34.41
				C380.58,247.65,382.05,196.18,399.88,186.99z"/>
			<path class="st7" d="M372.54,353.04c-14.89,6.55-48.77-12.07-47.04-37.36c1.62-23.56,33.17-38.6,47.7-31.55
				C392.27,293.39,390.9,344.97,372.54,353.04z"/>
		</g>
		<path class="st3" d="M500,282.45c-0.12,17.24-15,30.42-34.11,30.31c-18.67-0.1-33.11-10.99-34.71-29.01l20.54,0.11
			c0.81,7.98,5.52,11.87,14.28,11.92c8.48,0.04,14.4-4.68,14.45-11.5c0.03-3.86-1.68-7.47-4.82-9.68c-3.15-2.21-4.29-2.6-18.34-7.44
			c-14.19-4.84-22.03-14.02-21.95-25.98c0.1-15.06,13.97-26.95,31.07-26.86c13.03,0.07,21.73,7.34,22.13,7.72
			c8.56,7.94,8.07,17.95,7.96,19.62c-6.41-0.08-12.81-0.17-19.21-0.25c-0.53-6.44-4.53-10.06-11.14-10.1
			c-6.46-0.03-10.95,3.93-10.98,9.59c-0.02,3.47,1.97,6.45,5.83,8.65c1.43,0.78,1.72,0.91,11.75,4.31
			C494.25,261.19,500.08,269.59,500,282.45z"/>
		<g>
			<path class="st3" d="M383.69,265.78c-0.21-0.57-0.4-1.07-0.59-1.58c-0.19-0.5-0.37-1-0.56-1.49c-0.26-0.65-0.74-0.99-1.35-0.96
				c-0.64,0.04-1.07,0.39-1.27,1.07c-0.66,2.33-1.31,4.67-1.97,7c-0.03,0.12-0.08,0.23-0.19,0.35c-0.13-1.04-0.25-2.08-0.38-3.13
				c-0.35-2.98-0.71-5.97-1.06-8.95c-0.02-0.2-0.06-0.41-0.13-0.59c-0.19-0.48-0.67-0.73-1.22-0.67c-0.53,0.06-0.89,0.39-0.98,0.98
				c-0.41,2.44-0.81,4.88-1.21,7.32c-0.13,0.77-0.25,1.54-0.39,2.37c-5.5,0.1-10.99,0.19-16.5,0.29c-0.01-0.15-0.03-0.26-0.03-0.36
				c0-4.04-0.07-8.08,0.36-12.11c0,0,0-0.01,0.01-0.01c5.74-0.21,11.48-0.14,17.21-0.15c0-5.77-0.02-11.53,0.04-17.3
				c0-0.07,0.06-0.13,0.13-0.14c6.62-0.2,13.26-0.22,19.87,0.03c0.11,5.8,0.07,11.61,0.07,17.41c5.7,0,11.4-0.01,17.1,0.02
				c0.09,0,0.17,0.07,0.17,0.16c0.36,3.93,0.31,7.55,0.31,11.37c-0.16,0.01-0.28,0.03-0.4,0.03c-6.29-0.1-12.58-0.2-18.88-0.31
				c-0.34,1.24-0.66,2.46-1.16,3.69c-0.05-0.54-0.1-1.09-0.15-1.63c-0.28-3.5-0.55-6.99-0.83-10.49c-0.06-0.79-0.45-1.23-1.14-1.33
				c-0.62-0.09-1.13,0.24-1.42,0.91c-1.11,2.66-2.21,5.32-3.32,7.97C383.82,265.61,383.78,265.66,383.69,265.78z"/>
			<path class="st3" d="M355.95,269.26c0.23,0,0.4,0,0.57,0c5.48,0.09,10.97,0.19,16.45,0.28c0.92,0.02,1.2-0.22,1.38-1.11
				c0.13-0.69,0.26-1.37,0.48-2.05c0.13,1.22,0.26,2.44,0.38,3.66c0.25,2.4,0.51,4.8,0.76,7.19c0.07,0.66,0.53,1.1,1.16,1.15
				c0.68,0.05,1.18-0.28,1.37-0.96c0.91-3.13,1.81-6.25,2.72-9.38c0.04-0.15,0.09-0.3,0.18-0.58c0.19,0.5,0.34,0.88,0.48,1.26
				c0.15,0.4,0.3,0.79,0.44,1.19c0.21,0.59,0.62,0.93,1.26,0.95c0.62,0.02,1.07-0.28,1.33-0.91c0.81-1.95,1.6-3.91,2.41-5.86
				c0.06-0.14,0.12-0.28,0.27-0.41c0.08,0.75,0.16,1.5,0.23,2.25c0.32,3.62,0.64,7.24,0.95,10.86c0.02,0.17,0.03,0.34,0.06,0.51
				c0.09,0.56,0.49,0.94,1.04,0.99c0.61,0.05,1.1-0.23,1.27-0.82c0.32-1.11,0.6-2.24,0.9-3.36c0.45-1.71,0.9-3.42,1.35-5.13
				c0.06-0.25,0.14-0.39,0.46-0.4c5.66-0.08,11.31-0.18,16.97-0.27c0.08,0,0.15,0.01,0.29,0.02c0.05,0.73-0.1,1.43-0.32,2.1
				c-0.94,2.87-3.58,4.81-6.6,4.83c-3.24,0.02-6.49,0-9.73,0c-0.76,0-0.89,0.14-0.89,0.9c0,3.18,0,6.36,0,9.54
				c-0.01,4.02-3.03,7.08-7.06,7.13c-2.05,0.02-4.11,0.02-6.16,0c-3.8-0.04-6.88-3.14-6.9-6.95c-0.02-3.21,0-6.42,0-9.64
				c0-0.89-0.1-0.98-1-0.98c-3.17,0-6.33,0.01-9.5,0c-3.44-0.01-6.24-2.31-6.94-5.67C355.97,269.51,355.97,269.42,355.95,269.26z"/>
		</g>
		<path class="st3" d="M332.98,231.78c0.94,0.11,1.85,0.27,2.71,0.45c3.9-5.79,8.87-10.8,14.62-14.74c0.11-0.18,0.22-0.37,0.33-0.55
			c-2.64-1.16-5.25-2.23-6.67-2.67c-1.1-0.34-3.8-1.11-8.85-1.46c-3.05-0.21-8.01-0.6-13.82,0.45c-7.26,1.31-14.02,4.28-19.82,8.53
			c-2.48-1.59-5.3-3.22-8.48-4.78c-3.77-1.86-7.33-3.27-10.53-4.36c0.04,32.82,0.08,65.63,0.11,98.45c6.38,0,12.75,0,19.13,0
			c-0.08-11.13-0.16-22.26-0.23-33.39v-22.31C304.07,240.54,317.79,230.07,332.98,231.78z"/>
	</g>
</g>
<g id="Capa_4" class="st0">
	<g class="st2">
		<circle class="st8" cx="250" cy="250" r="250"/>
		<g>
			<path class="st9" d="M307.48,169.57c3.6-3.06,7.45-4.59,11.53-4.59c4.81,0,9.13,1.89,12.98,5.65v-0.71
				c3.12,3.06,4.69,7.05,4.69,11.99c0,5.18-1.56,9.29-4.69,12.35L275.41,250l56.58,55.73c3.36,3.3,5.05,7.54,5.05,12.7
				c0,2.12-0.36,4.23-1.08,6.35c-0.72,2.12-2.05,4.12-3.97,6c-3.12,3.06-7.09,4.58-11.89,4.58c-5.28,0-9.85-1.88-13.69-5.64
				l-56.58-54.68c-4.33,4.23-8.89,8.7-13.7,13.4c-4.81,4.71-9.61,9.47-14.41,14.29c-4.81,4.82-9.62,9.59-14.42,14.29
				c-4.81,4.71-9.37,9.17-13.69,13.41c-1.68,1.65-3.73,2.88-6.13,3.7c-2.41,0.83-4.93,1.23-7.57,1.23c-2.16,0-4.21-0.29-6.12-0.88
				c-1.93-0.59-3.85-1.83-5.77-3.7c-3.37-3.76-5.04-7.99-5.04-12.7c0-4.46,1.56-8.35,4.69-11.64h-0.36L225.31,250l-58.02-56.45
				c-2.88-3.05-4.32-6.58-4.32-10.59c0-4.7,1.68-9.05,5.04-13.05c3.84-3.53,7.81-5.3,11.89-5.3c4.81,0,9.25,2.01,13.34,6v-0.71
				l56.59,55.38L307.48,169.57z"/>
		</g>
	</g>
</g>
<g id="Capa_5" class="st0">
	<g class="st2">
		<path class="st10" d="M378.35,157.05c30.87,12.77,100.33,65.6,121.65,92.57c-0.71,0.8-1.43,1.68-2.21,2.49
			c-41.97,43.28-89.59,78.57-145.38,102.12c-35.8,15.12-73.06,23.25-112.13,21.62c-22.8-0.95-45.01-5.24-66.73-12.16
			c-0.33-0.11-0.66-0.24-0.99-0.36c-0.28-0.37-0.55-0.73-0.83-1.1c1.14-0.72,2.47-1.26,3.4-2.19c10.26-10.17,20.5-20.37,30.66-30.65
			c1.66-1.68,2.82-2.01,5.15-0.92c29.09,13.61,57.83,12.77,85.31-3.93c39.01-23.71,52.97-72.58,33.02-113.64
			c-1.3-2.67-0.95-4.07,1.1-6.09c15.46-15.26,30.77-30.67,46.13-46.03C377.11,158.18,377.76,157.6,378.35,157.05z"/>
		<path class="st10" d="M320.16,133.52c-9.03,8.98-17.68,17.59-26.34,26.21c-2.41,2.4-4.87,4.73-7.19,7.22
			c-1.17,1.26-2.15,1.34-3.78,0.75c-33.49-12.15-64.22-7.2-91.32,16.04c-27.82,23.85-37.07,63.82-23.47,98.21
			c0.6,1.52,1,2.61-0.45,4.05c-17.21,17.08-34.34,34.25-51.5,51.38c-0.4,0.4-0.88,0.73-1.28,1.05
			C72.56,316.28,25.82,278.23,0,249.28c5.5-5.51,10.91-11.17,16.58-16.56c32.61-30.97,68.49-57.39,108.75-77.64
			c26.9-13.53,55.01-23.56,84.77-28.64c36.66-6.27,72.81-3.76,108.48,6.53C318.93,133.07,319.27,133.21,320.16,133.52z"/>
		<path class="st10" d="M82.66,393.64c0.46-5.79,2.82-10.26,6.71-14.14c25-24.93,49.96-49.9,74.93-74.86
			c56.45-56.44,112.89-112.89,169.34-169.33c13.65-13.65,27.3-27.3,41-40.89c5.97-5.93,14.61-7.03,21.69-2.99
			c6.96,3.98,10.63,12.04,8.41,19.9c-0.86,3.04-2.58,6.2-4.79,8.43c-39.82,40.03-79.78,79.92-119.71,119.84
			c-55.09,55.07-110.26,110.07-165.2,165.3c-8.93,8.98-23.19,7.86-29.15-2.39C84.35,399.83,83.72,396.61,82.66,393.64z"/>
		<path class="st10" d="M228.37,307.56c26.58-26.57,53.22-53.19,79.8-79.76c7.83,17.79,5.91,46.79-15.09,66.82
			C273.1,313.66,245.13,315.18,228.37,307.56z"/>
		<path class="st10" d="M189.34,263.73c-4.23-21.96,0.49-41.2,15.81-57.16c16.09-16.75,35.98-22.07,59.51-17.74
			c-2.32,2.32-4.05,4.2-5.96,5.86c-0.48,0.41-1.62,0.27-2.39,0.08c-17.61-4.34-32.3,10.26-28,27.81c0.23,0.92,0.08,2.39-0.51,2.99
			c-12.33,12.48-24.75,24.87-37.16,37.27C190.38,263.1,190.03,263.26,189.34,263.73z"/>
	</g>
</g>
<g id="Capa_6" class="st0">
	<g class="st2">
		<path class="st10" d="M0,249.51c10.52-9.94,20.62-19.99,31.27-29.43c27.44-24.33,57.24-45.34,89.86-62.22
			c30.32-15.69,62.08-27.11,96.01-31.93c20.06-2.85,40.14-3.1,60.28-0.7c49.17,5.86,93.19,25.16,134.46,51.52
			c31.49,20.12,60.16,43.73,85.96,70.8c0.67,0.7,1.3,1.42,2.16,2.37c-0.7,0.82-1.33,1.63-2.04,2.37
			c-44.97,46.3-96.1,83.57-156.79,106.75c-16.58,6.33-33.66,10.81-51.18,13.89c-47.1,8.26-92.35,1.33-136.38-16.01
			c-38.64-15.23-73.4-37.04-105.7-62.96c-16.35-13.12-31.88-27.12-46.18-42.48C1.35,251.06,0.98,250.62,0,249.51z M338.38,249.8
			c0.08-48.18-39.51-87.79-87.93-87.96c-48.62-0.17-88.2,39.27-88.32,88.03c-0.13,48.72,39.29,88.17,88.12,88.19
			C298.97,338.07,338.29,298.69,338.38,249.8z"/>
		<path class="st10" d="M312.41,250.2c-0.08,34.4-27.99,62.09-62.55,62.05c-33.95-0.05-61.95-28.17-61.9-62.18
			c0.05-34.62,27.92-62.33,62.62-62.26C284.82,187.88,312.48,215.79,312.41,250.2z M272.78,216.99
			c0.01-12.44-10.14-22.64-22.54-22.64c-12.4,0-22.5,10.08-22.61,22.59c-0.11,12.31,10.24,22.69,22.55,22.62
			C262.71,239.48,272.77,229.43,272.78,216.99z"/>
	</g>
</g>
<g id="Capa_7" class="st0">
	<g class="st2">
		<path class="st9" d="M0,204.92c0.4-1.75,0.72-3.52,1.4-5.19c2.99-7.34,10.12-12.16,18.05-12.17c17.46,0,34.91,0,52.37,0
			c1.53,0,1.53,0,1.53,1.5c0,5.86,0,11.71,0,17.57c0,1.44-0.01,1.44-1.49,1.44c-15.23,0-30.46,0.06-45.69-0.05
			c-3.58-0.03-5.7,2.67-5.64,5.67c0.14,7.05,0.04,14.11,0.05,21.17c0,3.42,1.98,5.46,5.42,5.57c0.42,0.01,0.85,0.01,1.27,0.01
			c14.66,0,29.33,0,43.99,0c1.74,0,1.74,0,1.74,1.75c0,5.61,0,11.22,0,16.83c0,1.82,0,1.82-1.88,1.82c-15.02,0-30.03,0-45.05,0
			c-2.85,0-4.94,1.59-5.41,4.1c-0.09,0.48-0.09,0.98-0.09,1.47c-0.01,6.7-0.01,13.41,0,20.11c0,3.37,1.95,5.4,5.33,5.56
			c0.42,0.02,0.85,0.01,1.27,0.01c14.91,0,29.82,0,44.73,0c1.67,0,1.67,0,1.67,1.69c0,5.79-0.03,11.57,0.02,17.36
			c0.01,1.08-0.33,1.37-1.39,1.37c-17.67-0.03-35.33,0.01-53-0.03c-9.44-0.02-17.58-7.13-19-16.45c-0.05-0.31-0.14-0.61-0.21-0.92
			C0,265.05,0,234.98,0,204.92z"/>
		<path class="st9" d="M500,284.31c-0.17,1.11-0.3,2.23-0.52,3.33c-1.85,8.98-6.94,15.61-14.8,20.19
			c-5.85,3.41-12.25,4.88-18.98,4.8c-7.41-0.09-14.45-1.67-20.76-5.74c-8.04-5.19-12.47-12.65-13.68-22.09
			c-0.11-0.89,0.11-1.17,1.02-1.17c6.11,0.05,12.23,0.05,18.34,0.06c0.67,0,1.11,0.09,1.24,0.92c1.06,6.69,4.76,10.2,11.55,10.87
			c3.63,0.36,7.18,0.06,10.55-1.55c8.63-4.1,8.03-15.11,1.43-19.58c-2.73-1.85-5.79-2.91-8.84-4.04c-4.64-1.71-9.42-3.02-13.94-5.07
			c-5.47-2.48-10.26-5.84-13.56-10.98c-5.61-8.75-4.91-20.29,1.69-28.39c5.4-6.63,12.5-10.2,20.9-11.28
			c9.48-1.21,18.16,1.05,25.83,6.63c4.99,3.63,7.62,8.87,8.69,14.9c0.25,1.43,0.33,2.87,0.4,4.31c0.04,0.79-0.26,1.14-1.11,1.13
			c-5.76-0.1-11.51-0.17-17.27-0.22c-0.7-0.01-0.98-0.26-1.1-0.96c-0.97-5.86-4.5-8.89-10.43-9.06c-3.59-0.1-6.79,0.73-9.29,3.5
			c-2.9,3.22-2.92,8.39-0.08,11.64c1.87,2.14,4.26,3.43,6.9,4.36c4.8,1.69,9.68,3.15,14.38,5.09c4.62,1.9,9.08,4.1,12.98,7.28
			c4.78,3.89,7.58,8.85,8.22,14.99c0.03,0.27,0.13,0.54,0.21,0.81C500,280.79,500,282.55,500,284.31z"/>
		<path class="st9" d="M301.58,279.03c0,7.66-0.05,15.31,0.03,22.97c0.03,2.61,0.05,5.22,0.12,7.83c0.02,0.88-0.29,1.16-1.16,1.16
			c-5.58-0.03-11.17-0.03-16.75,0c-0.91,0.01-1.23-0.29-1.24-1.22c-0.01-4.48-0.11-8.96-0.11-13.43
			c-0.02-27.24-0.02-54.47-0.03-81.71c0-0.32,0.03-0.64-0.01-0.95c-0.1-0.89,0.23-1,1.03-0.72c5.81,2.06,11.37,4.66,16.6,7.94
			c1.01,0.64,1.68,0.65,2.7-0.05c9.43-6.42,19.85-9.02,31.24-8.18c5.42,0.4,10.63,1.4,15.55,3.74c1.17,0.56,1.23,0.74,0.15,1.5
			c-5.26,3.74-9.76,8.24-13.45,13.52c-0.45,0.64-0.89,0.71-1.6,0.59c-12.66-2.16-25.08,4.18-30.68,15.67
			c-1.62,3.33-2.58,6.79-2.5,10.59c0.14,6.91,0.04,13.83,0.04,20.74C301.53,279.03,301.55,279.03,301.58,279.03z"/>
		<path class="st9" d="M390.63,269.55c-0.22-2.55-0.45-5.1-0.66-7.64c-0.1-1.19-0.17-2.39-0.25-3.59c-0.06-0.79-0.26-1.53-1.17-1.66
			c-0.86-0.13-1.24,0.51-1.53,1.2c-0.89,2.15-1.78,4.3-2.68,6.45c-0.16,0.38-0.25,0.81-0.64,1.16c-0.51-0.62-0.62-1.39-0.92-2.08
			c-0.33-0.78-0.53-1.72-1.63-1.66c-1.03,0.06-1.2,0.94-1.43,1.73c-0.58,2.06-1.16,4.12-1.75,6.19c-0.09,0-0.19,0-0.28,0
			c-0.23-1.78-0.46-3.56-0.68-5.35c-0.24-2.03-0.46-4.06-0.71-6.09c-0.09-0.69-0.28-1.36-1.16-1.4c-0.89-0.03-1.11,0.61-1.22,1.32
			c-0.45,2.71-0.93,5.42-1.34,8.14c-0.12,0.82-0.43,1.14-1.28,1.15c-4.7,0.05-9.39,0.15-14.09,0.22c-1.39,0.02-1.41-0.01-1.41-1.42
			c0.01-3.21-0.07-6.42,0.21-9.62c0.11-1.26,0.26-1.46,1.54-1.46c4.81-0.03,9.61-0.04,14.42-0.05c1.42,0,1.42-0.01,1.42-1.39
			c0-4.83,0.02-9.67-0.02-14.5c-0.01-1.01,0.16-1.53,1.35-1.57c4.84-0.17,9.68-0.08,14.52-0.07c0.99,0,1.98,0.16,2.96,0.12
			c1.02-0.04,1.34,0.34,1.33,1.35c-0.03,4.8,0,9.6,0,14.39c0,1.67,0,1.67,1.68,1.67c4.77,0,9.54,0.02,14.31-0.02
			c1-0.01,1.35,0.34,1.42,1.33c0.2,3.03,0.17,6.06,0.22,9.09c0.02,1.01-0.37,1.29-1.32,1.22c-3.56-0.26-7.13-0.11-10.7-0.2
			c-1.94-0.05-3.88-0.06-5.82-0.18c-1.06-0.07-1.66,0.21-1.85,1.33c-0.11,0.67-0.42,1.3-0.64,1.94
			C390.78,269.58,390.7,269.57,390.63,269.55z"/>
		<path class="st9" d="M364.29,232.87c-11.18,7.64-16.45,18.27-16.07,31.74c0.07,2.29,0.52,4.54,1,6.78
			c-0.05,0.59-0.41,0.94-0.88,1.23c-3.22,1.96-6.54,3.71-10.16,4.82c-0.49,0.15-1.01,0.41-1.47-0.09c-1.15-3.13-1.75-6.39-2.06-9.69
			c-1.21-12.95,2.06-24.66,9.95-35.03c3.4-4.47,7.49-8.24,12.25-11.25c0.67-0.06,1.13,0.31,1.54,0.77c2.56,2.77,4.55,5.91,6.09,9.35
			C364.73,232.02,364.56,232.44,364.29,232.87z"/>
		<path class="st9" d="M418.57,255.96c-0.61-1.79-0.91-3.68-1.61-5.45c-5.13-13.01-14.6-20.66-28.42-22.93
			c-0.81-0.13-1.04-0.44-1.04-1.22c0.03-3.88,0.04-7.76,0-11.63c-0.01-0.92,0.28-1.1,1.17-1.01c11.56,1.26,21.48,5.97,29.72,14.11
			c6.17,6.1,10.38,13.4,12.71,21.76c0.19,0.75-0.1,1.29-0.72,1.68c-3.31,2.09-6.85,3.69-10.61,4.79
			C419.36,256.19,418.95,256.23,418.57,255.96z"/>
		<path class="st9" d="M430.84,276.29c-1.38,5.24-3.72,10.05-6.87,14.43c-8.71,12.08-20.46,19.04-35.3,20.75
			c-0.92,0.11-1.16-0.15-1.15-1.04c0.04-3.84,0.02-7.69,0.01-11.53c0-0.72,0.1-1.15,0.98-1.27c14.57-2.09,25.8-12.14,29.49-26.36
			c0.04-0.17,0.1-0.34,0.15-0.51c0.33-0.4,0.73-0.47,1.23-0.32c3.78,1.18,7.35,2.82,10.74,4.86
			C430.51,275.54,430.69,275.9,430.84,276.29z"/>
		<path class="st9" d="M374.86,266.74c0.36,3.29,0.73,6.58,1.07,9.87c0.08,0.8,0.26,1.5,1.22,1.56c0.96,0.07,1.24-0.63,1.46-1.38
			c0.79-2.74,1.59-5.49,2.39-8.23c0.09-0.3,0.19-0.59,0.34-1.05c0.5,0.69,0.64,1.38,0.89,2.01c0.25,0.62,0.58,1.16,1.33,1.19
			c0.82,0.04,1.17-0.54,1.44-1.19c0.78-1.89,1.55-3.77,2.44-5.66c0.44,1.3,0.44,2.65,0.57,3.98c0.27,2.84,0.48,5.69,0.71,8.53
			c0.01,0.14,0.04,0.28,0.06,0.42c0.12,0.66,0.34,1.28,1.13,1.31c0.78,0.04,1.11-0.5,1.28-1.17c0.56-2.11,1.12-4.23,1.69-6.34
			c0.63-2.33,0.18-2.15,2.76-2.18c4.73-0.06,9.46-0.14,14.19-0.2c1.31-0.02,1.41,0.13,1.11,1.41c-0.75,3.28-3.43,5.5-6.85,5.55
			c-3.04,0.05-6.08,0.01-9.11,0.02c-1.37,0-1.45,0.09-1.45,1.44c-0.01,2.93,0,5.86,0,8.78c-0.01,4.28-2.94,7.25-7.24,7.32
			c-1.94,0.03-3.89,0.03-5.83,0c-4.09-0.07-7.06-3.08-7.07-7.16c-0.01-3,0-6-0.01-8.99c0-1.27-0.13-1.39-1.4-1.39
			c-3-0.01-6.01,0.03-9.01-0.01c-3.26-0.04-5.84-1.89-6.79-4.79c-0.37-1.13-0.21-1.27,0.95-1.24c3.25,0.08,6.5,0.09,9.75,0.15
			c1.73,0.03,3.46,0.1,5.19,0.13c1.85,0.04,1.97-0.07,2.38-1.92c0.06-0.27,0.14-0.53,0.22-0.79
			C374.74,266.73,374.8,266.73,374.86,266.74z"/>
		<path class="st9" d="M354.97,283.66c2.4,2.97,5.03,5.71,8.19,7.91c4.69,3.26,9.87,5.29,15.53,6.06c0.82,0.11,1.07,0.42,1.07,1.21
			c-0.03,3.91-0.02,7.83,0,11.74c0,0.68-0.12,1.04-0.95,0.95c-15.02-1.74-26.93-8.73-35.7-21.03c-0.24-0.34-0.42-0.73-0.63-1.09
			c0.11-0.58,0.54-0.89,1-1.16c3.17-1.85,6.45-3.48,9.97-4.58C353.96,283.49,354.46,283.46,354.97,283.66z"/>
		<path class="st11" d="M430.84,276.29c-3.56-2.08-7.21-3.95-11.16-5.2c-0.5-0.16-0.99-0.38-1.53-0.34
			c1.01-4.66,1.19-9.35,0.44-14.06c-0.04-0.24-0.02-0.49-0.02-0.74c4.08-1.3,8.02-2.9,11.65-5.2c0.45-0.28,0.96-0.51,0.89-1.17
			c0.65,2.38,1.15,4.8,1.41,7.25c0.64,6.15,0.33,12.25-1.29,18.25C431.12,275.49,430.97,275.89,430.84,276.29z"/>
		<path class="st11" d="M364.29,232.87c-0.02-0.21,0.01-0.44-0.07-0.62c-1.74-4.1-4.1-7.79-7.36-10.87
			c6.65-4.38,13.99-6.8,21.86-7.71c0.74-0.09,1.04,0.17,1.04,0.91c-0.01,3.95-0.02,7.9,0,11.85c0.01,0.94-0.58,1.06-1.3,1.16
			C373.36,228.32,368.63,230.07,364.29,232.87z"/>
		<path class="st11" d="M354.97,283.66c-3.71,1.22-7.31,2.7-10.68,4.71c-0.6,0.36-1.22,0.69-1.83,1.03
			c-2.03-2.74-3.44-5.81-4.72-8.95c-0.41-1.01-0.87-2.01-1.03-3.1c4.5-1.29,8.63-3.36,12.51-5.96
			C350.41,275.82,352.38,279.89,354.97,283.66z"/>
		<path class="st9" d="M227.3,312.5c1.78,0,3.55,0,5.33,0C230.85,312.8,229.07,312.8,227.3,312.5z"/>
		<path class="st9" d="M179.11,258.52c-1.14-12.61-6.56-23.24-15.92-31.81c-14.59-13.36-36.09-16.59-54.08-8.18
			c-3.6,1.68-6.93,3.8-10.21,6.4c-0.04-0.45-0.09-0.68-0.09-0.92c0.01-4.52,0.01-9.03,0.04-13.55c0.05-7.3,0.1-14.6,0.19-21.91
			c0.01-0.97-0.3-1.32-1.27-1.28c-1.41,0.06-2.83,0.01-4.24,0.01c-4.24,0-8.48,0.03-12.72-0.02c-1.02-0.01-1.4,0.34-1.33,1.34
			c0.06,0.81-0.01,1.62-0.02,2.43c-0.09,18.56,0.04,37.12-0.1,55.67c-0.16,21.49-0.05,42.98-0.06,64.47c0,1.24,0.01,1.24,1.12,0.6
			c5.79-3.32,11.59-6.63,17.36-9.98c0.73-0.42,1.19-0.39,1.86,0.13c10.93,8.4,23.3,11.77,36.93,10.01
			c11.94-1.54,22.04-6.89,30.08-15.87C176.24,285.38,180.39,272.77,179.11,258.52z M130.11,292.7c-17.32,0.04-29.7-14.06-29.67-29.6
			c0.02-16.37,13.64-29.72,29.68-29.44c15.31-0.24,29.56,12.37,29.51,29.61C159.58,279.28,146.86,292.66,130.11,292.7z"/>
		<path class="st9" d="M277.8,268.17c-6.27,1.57-12.54,3.16-18.81,4.71c-0.81,0.2-1.25,0.59-1.55,1.36
			c-2.11,5.28-5.44,9.64-10.07,12.94c-6.52,4.65-13.79,6.51-21.74,5.33c-5.17-0.77-9.82-2.81-13.95-6.03
			c-0.6-0.47-0.55-0.78-0.03-1.22c0.65-0.54,1.27-1.12,1.9-1.69c4.5-4.02,9.01-8.04,13.49-12.07c4.12-3.7,8.21-7.43,12.32-11.14
			c2.22-2.01,4.46-4,6.69-6c2.52-2.25,5.05-4.5,7.57-6.75c2.28-2.04,4.49-4.18,6.85-6.13c2.86-2.37,5.3-5.17,8.12-7.57
			c0.48-0.41,0.44-0.75,0.03-1.24c-1.94-2.34-4.02-4.53-6.32-6.52c-4.06-3.53-8.53-6.38-13.54-8.34
			c-7.61-2.97-15.52-4.03-23.68-3.43c-6.97,0.52-13.43,2.63-19.47,6.03c-7.27,4.1-13.14,9.73-17.52,16.84
			c-6.61,10.72-9.02,22.35-6.67,34.72c3.22,16.96,12.88,29.11,28.55,36.38c5.46,2.53,11.26,3.92,17.3,4.15
			c1.78,0.13,3.55,0.13,5.33,0c1.23-0.09,2.47-0.12,3.69-0.29c12.55-1.77,23.05-7.36,31.3-17c6.42-7.5,10.13-16.22,11.41-25.99
			C279.19,267.96,279.06,267.85,277.8,268.17z M201.74,265.67c-0.54,0.48-1.17,1.44-1.7,1.2c-0.61-0.28-0.38-1.38-0.49-2.14
			c-0.02-0.17-0.01-0.35-0.02-0.53c-0.16-1.48-0.17-2.97,0-4.45c0.49-6.68,3.06-12.48,7.48-17.48c4.83-5.46,10.95-8.54,18.13-9.54
			c3.71-0.52,7.39-0.19,11.02,0.69c0.3,0.07,0.72,0.06,0.83,0.38c0.14,0.41-0.3,0.6-0.55,0.81c-7.1,6.35-14.21,12.69-21.31,19.04
			C210.66,257.65,206.21,261.67,201.74,265.67z"/>
		<path class="st9" d="M199.53,259.75c0,1.48,0,2.97,0,4.45C199.22,262.72,199.21,261.24,199.53,259.75z"/>
	</g>
</g>
<g id="Capa_8" class="st0">
	<g class="st2">
		<path class="st9" d="M0,416.67h500v-55.56H0V416.67z M0,277.78h500v-55.56H0V277.78z M0,83.33v55.56h500V83.33H0z"/>
	</g>
</g>
<g id="Capa_9" class="st0">
	<g class="st2">
		<g>
			<rect y="12.52" class="st8" width="141.32" height="261.33"/>
			<rect x="218.95" y="12.52" class="st8" width="281.05" height="261.33"/>
		</g>
		<rect y="348.64" class="st8" width="500" height="138.84"/>
	</g>
</g>
<g id="Capa_10" class="st0">
	<g class="st2">
		<path class="st8" d="M250.48,0.08C388.43,0.16,499.99,111.95,500,250.12c0.01,138.59-112.05,250.03-251.18,249.8
			C111.15,499.68-0.13,387.53,0,249.16C0.13,111.4,112.16,0.01,250.48,0.08z M413.02,378.63c59.86-67.36,71.46-195.13-14.66-280.87
			C317.24,17,184.39,16.39,103.32,95.98c-88.63,87.01-75.87,215.99-17.36,281.45c0.55-0.6,1.32-1.12,1.58-1.82
			c0.74-2.01,1.26-4.09,1.87-6.14c15.39-51.88,47.36-89.19,97.73-109.72c5.46-2.22,13.41-2.01,18.93,0.22
			c25.84,10.44,52.56,14.34,77.9,2.72c17.72-8.13,31.11-4.03,45.45,4.58c8.11,4.87,16.33,9.71,23.76,15.52
			C384.16,307,403.27,338.98,413.02,378.63z"/>
		<path class="st8" d="M249.71,71.79c50.49-0.03,89.59,39.2,89.41,89.72c-0.17,49.21-40.05,88.64-89.51,88.49
			c-49.3-0.15-88.76-39.85-88.74-89.29C160.89,111.01,200.05,71.82,249.71,71.79z"/>
	</g>
</g>
<g id="Capa_11" class="st0">
	<g class="st2">
		<path class="st8" d="M244.4,496.17c-51.61,0-103.21,0.28-154.82-0.07c-55.98-0.38-89.3-33.94-89.42-90.17
			c-0.22-102.5-0.22-205.01,0-307.51c0.12-57.3,33.49-90.3,91.15-90.48c60.09-0.18,120.18-0.13,180.26,0
			c28.77,0.06,44.22,13.2,43.99,36.88c-0.23,23.64-15.33,35.95-44.69,36c-57.97,0.1-115.95,0.66-173.9-0.33
			c-18.8-0.32-24.3,6.14-24.17,24.51c0.72,98.26,0.69,196.52,0.02,294.78c-0.12,17.67,5.74,23.39,23.23,23.29
			c98.97-0.6,197.94-0.55,296.9-0.03c16.44,0.09,22.49-5.33,22.27-22.07c-0.74-56.54-0.4-113.1-0.22-169.66
			c0.1-30.77,13.04-46.21,37.51-45.6c22.94,0.57,35.68,16.58,35.74,45.59c0.12,58.67,0.32,117.35-0.05,176.02
			c-0.34,54.45-34.32,88.35-88.99,88.77C347.61,496.48,296,496.16,244.4,496.17z"/>
		<path class="st8" d="M381.56,55.52c22.22,23.75,42.81,45.76,64.25,68.68c-52.23,49.04-103.5,97.17-156.92,147.32
			c-21.47-22.84-42.39-45.09-64.38-68.48C277.01,153.72,328.25,105.59,381.56,55.52z"/>
		<path class="st8" d="M458.1,113.01c-21.92-23.25-42.54-45.12-63.7-67.55c2.17-2.79,3.45-5.31,5.47-6.87
			c15.22-11.73,30.58-23.27,45.9-34.87c17.92,17.61,36.57,34.58,53.1,53.41c3,3.42-0.44,16.36-4.84,21.61
			C484.18,90.51,471.86,100.21,458.1,113.01z"/>
		<path class="st8" d="M276.6,282.61c-31.06,7.04-58.34,13.23-89.88,20.38c9.2-30.83,17.39-58.25,26.29-88.07
			C234.8,238.12,254.43,259.01,276.6,282.61z"/>
	</g>
</g>
<g id="Capa_12">
	<g>
		<path class="st8" d="M230.13,486.88c-68.74-0.01-137.49,0.01-206.23-0.02c-16.74-0.01-22.01-6.47-19.27-22.92
			c13.75-82.48,27.45-164.96,41.13-247.45c2.16-13.01,6.58-16.94,19.95-16.94c138.37-0.02,276.73-0.02,415.1-0.01
			c15.56,0,21.14,6.79,18.59,22.05c-13.76,82.49-27.49,164.99-41.19,247.49c-2.34,14.09-6.57,17.8-20.98,17.8
			C368.21,486.89,299.17,486.88,230.13,486.88z M261,456.47c62.36-1.55,111-51.97,109.47-113.48
			c-1.52-61.22-52.15-108.89-114.23-107.56c-59.81,1.28-108.44,52.79-106.87,113.17C150.94,408.62,201.97,457.93,261,456.47z"/>
		<path class="st8" d="M114.8,13.12c93.76,0,186.47,0,279.97,0c0,58.86,0,117.42,0,176.5c-15.68,0-31.03,0-47.66,0
			c0-3.71,0-7.1,0-10.49c0-37.75,0.01-75.51,0.01-113.26c0-2.63,0.43-5.45-0.37-7.83c-0.6-1.78-2.95-4.24-4.38-4.15
			c-1.59,0.1-3.65,2.51-4.34,4.35c-0.78,2.06-0.31,4.61-0.32,6.95c-0.03,38.05-0.04,76.09-0.06,114.14c0,3.18,0,6.35,0,10.17
			c-19.33,0-37.92,0-57.87,0c0-3.38,0-6.78,0-10.18c0-38.05,0.01-76.09,0-114.14c0-2.05,0.51-4.34-0.24-6.08
			c-0.91-2.11-2.91-3.75-4.43-5.6c-1.56,1.8-3.61,3.38-4.54,5.47c-0.76,1.72-0.21,4.03-0.21,6.08
			c-0.02,38.34-0.03,76.68-0.05,115.01c0,2.89,0,5.77,0,9.38c-9.5,0-18.41,0-28.42,0c-0.16-2.83-0.48-5.89-0.48-8.96
			c-0.03-38.34,0.12-76.68-0.2-115.01c-0.03-3.98-2.92-11.41-4.19-11.35c-7.49,0.37-5.11,6.99-5.13,11.42
			c-0.17,38.04-0.1,76.09-0.1,114.14c0,3.14,0,6.28,0,9.92c-9.89,0-18.79,0-28.84,0c0-3.54,0-6.65,0-9.76
			c0.01-38.63,0.01-77.26,0.01-115.89c0-1.75,0.47-3.82-0.29-5.18c-1.11-2.01-3.13-3.52-4.76-5.24c-1.51,1.87-3.49,3.55-4.39,5.68
			c-0.74,1.75-0.22,4.03-0.22,6.08c-0.01,38.05-0.01,76.09-0.02,114.14c0,3.17,0,6.33,0,10.09c-9.69,0-18.58,0-28.31,0
			c-0.17-3.25-0.46-6.35-0.46-9.46c-0.03-37.46-0.02-74.92-0.01-112.38c0-1.46,0.45-3.11-0.07-4.35c-1.4-3.35-3.21-6.53-4.86-9.78
			c-1.6,3.26-4.56,6.51-4.59,9.79c-0.33,38.63-0.21,77.26-0.22,115.89c0,3.18,0,6.37,0,10.23c-13.57,0-26.51,0-39.95,0
			C114.8,130.71,114.8,72.35,114.8,13.12z"/>
		<path class="st8" d="M0,424.12c0-40.95,0-81.89,0-122.84c0-43.87-0.01-87.73,0.01-131.6c0-13.36,3.01-17.35,15.9-19.48
			c5.5-0.91,6.43-4.04,6.41-8.57c-0.04-9.07-0.23-18.15,0.1-27.21c0.49-13.31,10.04-23.57,23.3-23.93
			c19.28-0.53,38.58-0.14,58.66-0.14c0,32.96,0,65.55,0,99.79c-8.31,0-16.94,0-25.56,0c-4.97,0-9.95-0.07-14.92,0.02
			c-15.54,0.28-24.43,7.82-27.01,23.25c-8.34,49.89-16.57,99.81-24.87,149.71c-3.4,20.41-6.89,40.81-10.34,61.21
			C1.12,424.27,0.56,424.2,0,424.12z"/>
		<path class="st8" d="M454.35,189.66c-16.96,0-32.58,0-48.79,0c0-13.12,0-25.76,0-39.36c12.21,0,24.09-0.51,35.9,0.19
			c7.55,0.45,12.2,5.82,12.75,13.3C454.83,172.12,454.35,180.54,454.35,189.66z"/>
		<path class="st8" d="M234.01,320c0-8.65-0.12-16.18,0.03-23.7c0.24-11.97,4.73-16.44,16.46-16.55c6.72-0.06,13.44-0.08,20.16,0.03
			c10.08,0.16,14.82,4.88,15.17,15.09c0.14,4.09,0.03,8.18,0.03,12.27c0,3.78,0,7.55,0,12.84c8.24,0,15.98-0.08,23.72,0.02
			c11.77,0.16,16.48,4.78,16.7,16.44c0.13,7.01,0.27,14.04-0.13,21.03c-0.52,9.24-5.26,13.69-14.57,13.95
			c-8.12,0.22-16.26,0.05-25.71,0.05c0,8.36,0.03,15.81-0.01,23.27c-0.07,12.36-4.6,17.03-16.82,17.2
			c-6.72,0.1-13.44,0.18-20.16-0.04c-9.68-0.33-14.32-4.96-14.86-14.69c-0.23-4.08-0.04-8.18-0.04-12.27c0-4.05,0-8.11,0-13.41
			c-8.53,0-16.32,0.08-24.11-0.02c-11.41-0.15-15.88-4.61-15.98-15.92c-0.07-7.3-0.21-14.62,0.14-21.91
			c0.42-8.78,5.02-13.3,13.86-13.61C216.04,319.78,224.2,320,234.01,320z"/>
	</g>
</g>
</svg>
