<?xml version="1.0" encoding="utf-8"?>
<!-- Generator: Adobe Illustrator 24.0.0, SVG Export Plug-In . SVG Version: 6.00 Build 0)  -->
<svg version="1.1" xmlns="http://www.w3.org/2000/svg" xmlns:xlink="http://www.w3.org/1999/xlink" x="0px" y="0px"
	 viewBox="0 0 500 500" style="enable-background:new 0 0 500 500;" xml:space="preserve">
<style type="text/css">
	.st0{display:none;}
	.st1{display:inline;fill:#006064;}
	.st2{display:inline;}
	.st3{fill:#FFFFFF;}
	.st4{fill:#005662;}
	.st5{display:inline;opacity:0.25;}
</style>
<g id="Capa_1" class="st0">
	<path class="st1" d="M75.74,381.12c-7.54,0-14.36,0.62-21.04-0.11c-31.4-3.41-54.17-27.63-54.36-59.48
		c-0.46-78.37-0.47-156.75-0.01-235.12c0.19-33.04,27.53-58.82,60.71-58.83c125.93-0.03,251.85-0.03,377.78,0.01
		c33.92,0.01,60.83,26.14,60.95,59.92c0.27,77.71,0.29,155.43,0.06,233.14c-0.1,34.79-26.43,60.64-61.51,60.71
		c-84.54,0.16-169.08,0.09-253.61-0.04c-4.78-0.01-8.14,1.3-11.54,4.73c-26.94,27.21-54.09,54.21-81.16,81.3
		c-3.17,3.17-6.23,6.54-11.37,4.46c-5.21-2.12-4.87-6.74-4.87-11.18c0-23.78-0.02-47.55-0.03-71.33
		C75.74,386.92,75.74,384.56,75.74,381.12z M250.31,188.9c-60.12,0-120.23,0-180.35,0c-13.44,0-20.88,5.63-20.79,15.71
		c0.09,10.08,7.44,15.53,20.97,15.53c120.01,0.01,240.02,0.01,360.03,0.01c1.98,0,3.97,0.06,5.94-0.11
		c8.56-0.75,14.99-7.51,14.92-15.61c-0.07-8.22-6.49-14.82-15.1-15.43c-2.41-0.17-4.84-0.1-7.26-0.1
		C369.22,188.9,309.77,188.9,250.31,188.9z M250.06,146.71c0,0.02,0,0.04,0,0.06c24.66,0,49.32,0,73.98,0
		c36.11-0.01,72.22,0.12,108.33-0.21c4.52-0.04,9.73-1.47,13.36-4.05c5.51-3.9,6.44-10.28,4.2-16.69
		c-2.32-6.65-8.41-10.04-17.57-10.04c-121.32,0-242.65,0-363.97,0.01c-1.76,0-3.53-0.02-5.28,0.16c-9.11,0.94-15.3,9.32-13.59,18.3
		c1.56,8.16,7.4,12.44,17.56,12.44C128.07,146.73,189.07,146.71,250.06,146.71z M250.19,262.33c0-0.01,0-0.02,0-0.03
		c-59.23,0-118.46,0-177.69,0c-3.08,0-6.18-0.1-9.24,0.13c-7.9,0.6-13.81,6.89-14.09,14.79c-0.27,7.72,5.43,14.63,13.17,15.71
		c2.6,0.36,5.27,0.25,7.91,0.25c118.68,0.01,237.35,0.01,356.03,0.01c3.52,0,7.29,0.69,10.5-0.33c3.98-1.26,8.25-3.27,11.02-6.23
		c4.01-4.29,4.3-10.11,1.63-15.46c-3.15-6.31-8.47-8.91-15.62-8.9C372.61,262.38,311.4,262.33,250.19,262.33z"/>
</g>
<g id="Capa_2" class="st0">
	<g class="st2">
		<path class="st3" d="M299.1,49.1c0,27.11-21.98,49.09-49.1,49.09c-27.11,0-49.09-21.98-49.09-49.09C200.9,21.98,222.89,0,250,0
			C277.11,0,299.1,21.98,299.1,49.1z"/>
		<path class="st3" d="M299.1,250c0,27.12-21.98,49.1-49.1,49.1c-27.11,0-49.09-21.98-49.09-49.1c0-27.11,21.98-49.09,49.09-49.09
			C277.11,200.91,299.1,222.89,299.1,250z"/>
		<path class="st3" d="M299.1,450.91c0,27.12-21.98,49.09-49.1,49.09c-27.11,0-49.09-21.98-49.09-49.09
			c0-27.11,21.98-49.09,49.09-49.09C277.11,401.81,299.1,423.79,299.1,450.91z"/>
	</g>
</g>
<g id="Capa_3" class="st0">
	<g class="st2">
		<g>
			<path class="st4" d="M207.78,312.39c-0.01-20.12-0.54-40.25,0.13-60.35c0.88-26.62,18.02-44.12,41.98-44.06
				c23.93,0.06,41.45,17.5,41.95,44.26c0.77,41.1,0.87,82.23-0.09,123.32c-0.61,25.8-20.11,43.88-43.42,43.01
				c-22.68-0.85-39.47-18.18-40.39-43.22C207.18,354.4,207.79,333.38,207.78,312.39z"/>
			<path class="st4" d="M249.35,165.46c-22.63-0.25-41.33-19.15-41.46-41.89c-0.14-23.87,19.75-43.09,43.61-42.14
				c22.74,0.9,41.01,20.33,40.39,42.94C291.27,146.71,271.61,165.71,249.35,165.46z"/>
		</g>
		<path class="st4" d="M250,500C112.15,500,0,387.85,0,250S112.15,0,250,0s250,112.15,250,250S387.85,500,250,500z M250,41.14
			C134.83,41.14,41.14,134.83,41.14,250S134.83,458.86,250,458.86S458.86,365.17,458.86,250S365.17,41.14,250,41.14z"/>
	</g>
</g>
<g id="Capa_4" class="st0">
	<g class="st5">
		<path class="st4" d="M230.13,486.88c-68.74-0.01-137.49,0.01-206.23-0.02c-16.74-0.01-22.01-6.47-19.27-22.92
			c13.75-82.48,27.45-164.96,41.13-247.45c2.16-13.01,6.58-16.94,19.95-16.94c138.37-0.02,276.73-0.02,415.1-0.01
			c15.56,0,21.14,6.79,18.59,22.05c-13.76,82.49-27.49,164.99-41.19,247.49c-2.34,14.09-6.57,17.8-20.98,17.8
			C368.21,486.89,299.17,486.88,230.13,486.88z M261,456.47c62.36-1.55,111-51.97,109.47-113.48
			c-1.52-61.22-52.15-108.89-114.23-107.56c-59.81,1.28-108.44,52.79-106.87,113.17C150.94,408.62,201.97,457.93,261,456.47z"/>
		<path class="st4" d="M114.8,13.12c93.76,0,186.47,0,279.97,0c0,58.86,0,117.42,0,176.5c-15.68,0-31.03,0-47.66,0
			c0-3.71,0-7.1,0-10.49c0-37.75,0.01-75.51,0.01-113.26c0-2.63,0.43-5.45-0.37-7.83c-0.6-1.78-2.95-4.24-4.38-4.15
			c-1.59,0.1-3.65,2.51-4.34,4.35c-0.78,2.06-0.31,4.61-0.32,6.95c-0.03,38.05-0.04,76.09-0.06,114.14c0,3.18,0,6.35,0,10.17
			c-19.33,0-37.92,0-57.87,0c0-3.38,0-6.78,0-10.18c0-38.05,0.01-76.09,0-114.14c0-2.05,0.51-4.34-0.24-6.08
			c-0.91-2.11-2.91-3.75-4.43-5.6c-1.56,1.8-3.61,3.38-4.54,5.47c-0.76,1.72-0.21,4.03-0.21,6.08
			c-0.02,38.34-0.03,76.68-0.05,115.01c0,2.89,0,5.77,0,9.38c-9.5,0-18.41,0-28.42,0c-0.16-2.83-0.48-5.89-0.48-8.96
			c-0.03-38.34,0.12-76.68-0.2-115.01c-0.03-3.98-2.92-11.41-4.19-11.35c-7.49,0.37-5.11,6.99-5.13,11.42
			c-0.17,38.04-0.1,76.09-0.1,114.14c0,3.14,0,6.28,0,9.92c-9.89,0-18.79,0-28.84,0c0-3.54,0-6.65,0-9.76
			c0.01-38.63,0.01-77.26,0.01-115.89c0-1.75,0.47-3.82-0.29-5.18c-1.11-2.01-3.13-3.52-4.76-5.24c-1.51,1.87-3.49,3.55-4.39,5.68
			c-0.74,1.75-0.22,4.03-0.22,6.08c-0.01,38.05-0.01,76.09-0.02,114.14c0,3.17,0,6.33,0,10.09c-9.69,0-18.58,0-28.31,0
			c-0.17-3.25-0.46-6.35-0.46-9.46c-0.03-37.46-0.02-74.92-0.01-112.38c0-1.46,0.45-3.11-0.07-4.35c-1.4-3.35-3.21-6.53-4.86-9.78
			c-1.6,3.26-4.56,6.51-4.59,9.79c-0.33,38.63-0.21,77.26-0.22,115.89c0,3.18,0,6.37,0,10.23c-13.57,0-26.51,0-39.95,0
			C114.8,130.71,114.8,72.35,114.8,13.12z"/>
		<path class="st4" d="M0,424.12c0-40.95,0-81.89,0-122.84c0-43.87-0.01-87.73,0.01-131.6c0-13.36,3.01-17.35,15.9-19.48
			c5.5-0.91,6.43-4.04,6.41-8.57c-0.04-9.07-0.23-18.15,0.1-27.21c0.49-13.31,10.04-23.57,23.3-23.93
			c19.28-0.53,38.58-0.14,58.66-0.14c0,32.96,0,65.55,0,99.79c-8.31,0-16.94,0-25.56,0c-4.97,0-9.95-0.07-14.92,0.02
			c-15.54,0.28-24.43,7.82-27.01,23.25c-8.34,49.89-16.57,99.81-24.87,149.71c-3.4,20.41-6.89,40.81-10.34,61.21
			C1.12,424.27,0.56,424.2,0,424.12z"/>
		<path class="st4" d="M454.35,189.66c-16.96,0-32.58,0-48.79,0c0-13.12,0-25.76,0-39.36c12.21,0,24.09-0.51,35.9,0.19
			c7.55,0.45,12.2,5.82,12.75,13.3C454.83,172.12,454.35,180.54,454.35,189.66z"/>
		<path class="st4" d="M234.01,320c0-8.65-0.12-16.18,0.03-23.7c0.24-11.97,4.73-16.44,16.46-16.55c6.72-0.06,13.44-0.08,20.16,0.03
			c10.08,0.16,14.82,4.88,15.17,15.09c0.14,4.09,0.03,8.18,0.03,12.27c0,3.78,0,7.55,0,12.84c8.24,0,15.98-0.08,23.72,0.02
			c11.77,0.16,16.48,4.78,16.7,16.44c0.13,7.01,0.27,14.04-0.13,21.03c-0.52,9.24-5.26,13.69-14.57,13.95
			c-8.12,0.22-16.26,0.05-25.71,0.05c0,8.36,0.03,15.81-0.01,23.27c-0.07,12.36-4.6,17.03-16.82,17.2
			c-6.72,0.1-13.44,0.18-20.16-0.04c-9.68-0.33-14.32-4.96-14.86-14.69c-0.23-4.08-0.04-8.18-0.04-12.27c0-4.05,0-8.11,0-13.41
			c-8.53,0-16.32,0.08-24.11-0.02c-11.41-0.15-15.88-4.61-15.98-15.92c-0.07-7.3-0.21-14.62,0.14-21.91
			c0.42-8.78,5.02-13.3,13.86-13.61C216.04,319.78,224.2,320,234.01,320z"/>
	</g>
</g>
<g id="Capa_5">
	<path class="st3" d="M478.68,342.03H21.32C9.55,342.03,0,332.49,0,320.71V179.29c0-11.78,9.55-21.32,21.32-21.32h457.36
		c11.78,0,21.32,9.55,21.32,21.32v141.42C500,332.49,490.45,342.03,478.68,342.03z"/>
	<path class="st4" d="M191.73,292.38v-31.78h158.92v-21.19H191.73v-31.78L149.35,250L191.73,292.38z"/>
</g>
</svg>
