<?xml version="1.0" encoding="utf-8"?>
<!-- Generator: Adobe Illustrator 24.0.0, SVG Export Plug-In . SVG Version: 6.00 Build 0)  -->
<svg version="1.1" xmlns="http://www.w3.org/2000/svg" xmlns:xlink="http://www.w3.org/1999/xlink" x="0px" y="0px"
	 viewBox="0 0 500 500" style="enable-background:new 0 0 500 500;" xml:space="preserve">
<style type="text/css">
	.st0{display:none;}
	.st1{display:inline;fill:#006064;}
	.st2{fill:#2693A7;}
	.st3{clip-path:url(#SVGID_2_);fill:#80ABB7;}
	.st4{clip-path:url(#SVGID_2_);fill:#008080;}
	.st5{clip-path:url(#SVGID_2_);fill:#006064;}
	.st6{clip-path:url(#SVGID_2_);fill:#2693A7;}
</style>
<g id="Capa_1" class="st0">
	<path class="st1" d="M450,50H50C22.5,50,0.25,72.5,0.25,100L0,400c0,27.5,22.5,50,50,50h400c27.5,0,50-22.5,50-50V100
		C500,72.5,477.5,50,450,50z M450,150L250,275L50,150v-50l200,125l200-125V150z"/>
</g>
<g id="Capa_2" class="st0">
	<path class="st1" d="M249.96,500c-58.47,0-116.94,0.01-175.4-0.01c-13.01,0-17.96-4.96-17.97-18.07c-0.02-83-0.02-166.01,0-249.01
		c0-12.67,5.42-18.01,18.28-18.12c9.13-0.08,18.27-0.31,27.38,0.09c5.86,0.26,7.92-1.55,7.83-7.65
		c-0.33-21.39-0.37-42.79-0.08-64.18c0.59-43.61,16.19-80.66,49.52-109.4c78.88-68.03,202.16-27.69,226.29,73.9
		c2.85,12,4.08,24.18,4.2,36.45c0.2,20.54,0.44,41.08-0.15,61.6c-0.23,7.87,2.42,9.79,9.7,9.31c8.8-0.58,17.68-0.25,26.51-0.11
		c11.73,0.18,17.33,5.76,17.33,17.33c0.03,83.57,0.03,167.15,0,250.72c0,11.9-5.3,17.12-17.19,17.12
		C367.46,500.01,308.71,500,249.96,500z M251.15,214.78c26.22,0,52.44-0.09,78.66,0.08c5.12,0.03,7.77-0.85,7.67-6.93
		c-0.4-24.22,0.47-48.48-0.6-72.66c-1.89-42.47-38.19-77.8-80.53-79.58c-44.4-1.87-82.96,29.03-88.96,71.99
		c-3.79,27.2-0.82,54.65-1.65,81.97c-0.18,6.01,4.02,5.1,7.6,5.11C199.28,214.79,225.21,214.78,251.15,214.78z"/>
</g>
<g id="Capa_3">
	<g>
		<path class="st2" d="M179.33,263.24c0,27.23-22.07,49.3-49.3,49.3c-11.86,0-22.74-4.19-31.25-11.17
			c-3.17,1.81-6.34,3.62-9.51,5.43c-3.31,1.91-6.62,3.83-9.93,5.74c0.04-41.77,0.08-83.54,0.12-125.31c6.51,0,13.02,0,19.53,0
			c-0.07,12.63-0.14,25.25-0.22,37.88c8.51-6.98,19.39-11.17,31.25-11.17C157.26,213.94,179.33,236.01,179.33,263.24z
			 M159.67,263.24c0-16.37-13.27-29.64-29.63-29.64c-16.37,0-29.64,13.27-29.64,29.64c0,16.37,13.27,29.63,29.64,29.63
			S159.67,279.61,159.67,263.24z"/>
		<path class="st2" d="M279.09,268.02c-1.91,20.22-16.27,37.97-37.09,43.19c-26.41,6.63-53.19-9.41-59.81-35.82
			c-6.63-26.41,9.41-53.19,35.82-59.82c14.61-3.67,28.18,1.2,30.14,1.98c11.47,4.54,18.16,12.19,20.94,15.78
			c-1.48,1.47-2.95,2.95-4.43,4.42L210.86,286c7.04,5.96,16.74,8.56,26.37,6.14c9.98-2.5,17.49-9.79,20.71-18.81L279.09,268.02z
			 M199.86,267.55l37.7-33.8c-4.96-1.51-10.38-1.74-15.78-0.39C206.49,237.21,196.99,252.27,199.86,267.55z"/>
		<path class="st2" d="M73.05,254.89H0v-47.8c0-10.81,8.76-19.57,19.57-19.57h53.75V208H25.57c-2.79,0-5.04,2.26-5.04,5.04v22.37
			c0,2.79,2.26,5.04,5.04,5.04h47.48V254.89z M73.57,292.18v20.47H19.57C8.76,312.65,0,303.89,0,293.09v-41.26h73.05v9.1H25.57
			c-2.79,0-5.04,2.26-5.04,5.04v21.18c0,2.79,2.26,5.04,5.04,5.04H73.57z"/>
		<g>
			<defs>
				<path id="SVGID_1_" d="M379.72,213.66v13.77c-17.86,1.93-31.55,16.84-31.55,35.25s13.69,33.33,31.55,35.25v13.78
					c-25.34-2-45.28-23.18-45.28-49.03S354.38,215.65,379.72,213.66z M432.83,262.68c0,25.85-19.94,47.03-45.28,49.03v-13.78
					c17.86-1.92,31.55-16.84,31.55-35.25s-13.69-33.33-31.55-35.25v-13.77C412.89,215.65,432.83,236.83,432.83,262.68z"/>
			</defs>
			<clipPath id="SVGID_2_">
				<use xlink:href="#SVGID_1_"  style="overflow:visible;"/>
			</clipPath>
			<path class="st3" d="M379.72,213.66v13.77c-17.86,1.93-31.55,16.84-31.55,35.25s13.69,33.33,31.55,35.25v13.78
				c-25.34-2-45.28-23.18-45.28-49.03S354.38,215.65,379.72,213.66z M432.83,262.68c0,25.85-19.94,47.03-45.28,49.03v-13.78
				c17.86-1.92,31.55-16.84,31.55-35.25s-13.69-33.33-31.55-35.25v-13.77C412.89,215.65,432.83,236.83,432.83,262.68z"/>
			<path class="st4" d="M317.14,208.77c14.46-7.45,49.42,9.06,49.24,34.41c-0.17,23.61-30.74,40.56-45.68,34.41
				C301.11,269.52,299.31,217.96,317.14,208.77z"/>
			<path class="st4" d="M399.88,271.06c14.46-7.45,49.42,9.06,49.24,34.41c-0.17,23.61-32.76,40.56-47.7,34.41
				C381.82,331.81,382.05,280.25,399.88,271.06z"/>
			<path class="st5" d="M399.88,186.99c14.46-7.45,49.42,9.06,49.24,34.41c-0.17,23.61-30.47,39.84-45.68,34.41
				C380.58,247.65,382.05,196.18,399.88,186.99z"/>
			<path class="st6" d="M372.54,353.04c-14.89,6.55-48.77-12.07-47.04-37.36c1.62-23.56,33.17-38.6,47.7-31.55
				C392.27,293.39,390.9,344.97,372.54,353.04z"/>
		</g>
		<path class="st2" d="M500,282.45c-0.12,17.24-15,30.42-34.11,30.31c-18.67-0.1-33.11-10.99-34.71-29.01l20.54,0.11
			c0.81,7.98,5.52,11.87,14.28,11.92c8.48,0.04,14.4-4.68,14.45-11.5c0.03-3.86-1.68-7.47-4.82-9.68c-3.15-2.21-4.29-2.6-18.34-7.44
			c-14.19-4.84-22.03-14.02-21.95-25.98c0.1-15.06,13.97-26.95,31.07-26.86c13.03,0.07,21.73,7.34,22.13,7.72
			c8.56,7.94,8.07,17.95,7.96,19.62c-6.41-0.08-12.81-0.17-19.21-0.25c-0.53-6.44-4.53-10.06-11.14-10.1
			c-6.46-0.03-10.95,3.93-10.98,9.59c-0.02,3.47,1.97,6.45,5.83,8.65c1.43,0.78,1.72,0.91,11.75,4.31
			C494.25,261.19,500.08,269.59,500,282.45z"/>
		<g>
			<path class="st2" d="M383.69,265.78c-0.21-0.57-0.4-1.07-0.59-1.58c-0.19-0.5-0.37-1-0.56-1.49c-0.26-0.65-0.74-0.99-1.35-0.96
				c-0.64,0.04-1.07,0.39-1.27,1.07c-0.66,2.33-1.31,4.67-1.97,7c-0.03,0.12-0.08,0.23-0.19,0.35c-0.13-1.04-0.25-2.08-0.38-3.13
				c-0.35-2.98-0.71-5.97-1.06-8.95c-0.02-0.2-0.06-0.41-0.13-0.59c-0.19-0.48-0.67-0.73-1.22-0.67c-0.53,0.06-0.89,0.39-0.98,0.98
				c-0.41,2.44-0.81,4.88-1.21,7.32c-0.13,0.77-0.25,1.54-0.39,2.37c-5.5,0.1-10.99,0.19-16.5,0.29c-0.01-0.15-0.03-0.26-0.03-0.36
				c0-4.04-0.07-8.08,0.36-12.11c0,0,0-0.01,0.01-0.01c5.74-0.21,11.48-0.14,17.21-0.15c0-5.77-0.02-11.53,0.04-17.3
				c0-0.07,0.06-0.13,0.13-0.14c6.62-0.2,13.26-0.22,19.87,0.03c0.11,5.8,0.07,11.61,0.07,17.41c5.7,0,11.4-0.01,17.1,0.02
				c0.09,0,0.17,0.07,0.17,0.16c0.36,3.93,0.31,7.55,0.31,11.37c-0.16,0.01-0.28,0.03-0.4,0.03c-6.29-0.1-12.58-0.2-18.88-0.31
				c-0.34,1.24-0.66,2.46-1.16,3.69c-0.05-0.54-0.1-1.09-0.15-1.63c-0.28-3.5-0.55-6.99-0.83-10.49c-0.06-0.79-0.45-1.23-1.14-1.33
				c-0.62-0.09-1.13,0.24-1.42,0.91c-1.11,2.66-2.21,5.32-3.32,7.97C383.82,265.61,383.78,265.66,383.69,265.78z"/>
			<path class="st2" d="M355.95,269.26c0.23,0,0.4,0,0.57,0c5.48,0.09,10.97,0.19,16.45,0.28c0.92,0.02,1.2-0.22,1.38-1.11
				c0.13-0.69,0.26-1.37,0.48-2.05c0.13,1.22,0.26,2.44,0.38,3.66c0.25,2.4,0.51,4.8,0.76,7.19c0.07,0.66,0.53,1.1,1.16,1.15
				c0.68,0.05,1.18-0.28,1.37-0.96c0.91-3.13,1.81-6.25,2.72-9.38c0.04-0.15,0.09-0.3,0.18-0.58c0.19,0.5,0.34,0.88,0.48,1.26
				c0.15,0.4,0.3,0.79,0.44,1.19c0.21,0.59,0.62,0.93,1.26,0.95c0.62,0.02,1.07-0.28,1.33-0.91c0.81-1.95,1.6-3.91,2.41-5.86
				c0.06-0.14,0.12-0.28,0.27-0.41c0.08,0.75,0.16,1.5,0.23,2.25c0.32,3.62,0.64,7.24,0.95,10.86c0.02,0.17,0.03,0.34,0.06,0.51
				c0.09,0.56,0.49,0.94,1.04,0.99c0.61,0.05,1.1-0.23,1.27-0.82c0.32-1.11,0.6-2.24,0.9-3.36c0.45-1.71,0.9-3.42,1.35-5.13
				c0.06-0.25,0.14-0.39,0.46-0.4c5.66-0.08,11.31-0.18,16.97-0.27c0.08,0,0.15,0.01,0.29,0.02c0.05,0.73-0.1,1.43-0.32,2.1
				c-0.94,2.87-3.58,4.81-6.6,4.83c-3.24,0.02-6.49,0-9.73,0c-0.76,0-0.89,0.14-0.89,0.9c0,3.18,0,6.36,0,9.54
				c-0.01,4.02-3.03,7.08-7.06,7.13c-2.05,0.02-4.11,0.02-6.16,0c-3.8-0.04-6.88-3.14-6.9-6.95c-0.02-3.21,0-6.42,0-9.64
				c0-0.89-0.1-0.98-1-0.98c-3.17,0-6.33,0.01-9.5,0c-3.44-0.01-6.24-2.31-6.94-5.67C355.97,269.51,355.97,269.42,355.95,269.26z"/>
		</g>
		<path class="st2" d="M332.98,231.78c0.94,0.11,1.85,0.27,2.71,0.45c3.9-5.79,8.87-10.8,14.62-14.74c0.11-0.18,0.22-0.37,0.33-0.55
			c-2.64-1.16-5.25-2.23-6.67-2.67c-1.1-0.34-3.8-1.11-8.85-1.46c-3.05-0.21-8.01-0.6-13.82,0.45c-7.26,1.31-14.02,4.28-19.82,8.53
			c-2.48-1.59-5.3-3.22-8.48-4.78c-3.77-1.86-7.33-3.27-10.53-4.36c0.04,32.82,0.08,65.63,0.11,98.45c6.38,0,12.75,0,19.13,0
			c-0.08-11.13-0.16-22.26-0.23-33.39v-22.31C304.07,240.54,317.79,230.07,332.98,231.78z"/>
	</g>
</g>
</svg>
